<?xml version="1.0" standalone="no"?>
<!DOCTYPE svg PUBLIC "-//W3C//DTD SVG 20010904//EN"
 "http://www.w3.org/TR/2001/REC-SVG-20010904/DTD/svg10.dtd">
<svg version="1.0" xmlns="http://www.w3.org/2000/svg"
 width="319.000000pt" height="319.000000pt" viewBox="0 0 319.000000 319.000000"
 preserveAspectRatio="xMidYMid meet">

<g transform="translate(0.000000,319.000000) scale(0.100000,-0.100000)"
fill="#000000" stroke="none">
<path d="M1435 3180 c-22 -4 -33 -8 -23 -9 16 -1 68 -55 68 -71 0 -4 -9 -10
-20 -13 -15 -4 -20 0 -20 14 0 13 -7 19 -21 19 -16 0 -19 -4 -14 -20 5 -16 2
-20 -15 -20 -28 0 -21 -24 9 -28 13 -2 21 -9 19 -20 -2 -9 5 -18 16 -20 16 -3
18 0 12 23 -6 23 -4 26 9 21 9 -3 21 -6 26 -6 18 0 9 -39 -17 -69 -29 -35 -91
-56 -135 -46 -35 8 -79 58 -79 90 0 17 8 26 30 34 28 9 30 13 28 58 -1 47 -1
47 -5 8 -4 -36 -24 -65 -45 -65 -14 0 -8 34 12 68 11 17 17 32 14 32 -2 0 -43
-10 -89 -21 -79 -20 -111 -39 -66 -39 11 0 33 -11 48 -25 24 -21 26 -26 13
-35 -22 -14 -27 -12 -33 10 -3 11 -13 20 -22 20 -13 0 -16 -6 -11 -26 5 -20 3
-27 -14 -31 -30 -8 -26 -37 5 -31 18 4 26 0 31 -14 3 -11 13 -18 22 -15 17 3
18 9 7 40 -6 13 -2 17 19 17 29 0 33 -17 15 -68 -21 -60 -127 -95 -188 -62
-51 27 -70 115 -36 167 16 24 16 25 -7 18 -12 -4 -48 -20 -78 -35 l-55 -28 36
-15 c47 -19 54 -32 25 -45 -20 -9 -25 -8 -29 9 -4 13 -10 17 -22 13 -11 -5
-15 -14 -11 -29 4 -15 1 -25 -9 -29 -25 -9 -6 -38 21 -32 16 4 26 1 33 -11 8
-14 12 -15 22 -6 10 10 10 15 0 27 -10 12 -9 17 8 25 34 19 41 13 41 -35 0
-39 -5 -51 -33 -79 -88 -88 -215 -32 -205 91 2 24 2 44 1 44 -2 0 -33 -21 -69
-47 l-66 -48 38 -3 c55 -5 69 -19 41 -42 -20 -17 -23 -17 -40 -2 -24 21 -47 1
-26 -24 11 -14 11 -18 -6 -30 -15 -11 -16 -17 -7 -26 10 -10 17 -10 33 0 16
10 24 11 35 1 22 -18 42 4 24 26 -12 14 -11 18 1 26 25 15 34 4 37 -48 3 -46
0 -53 -28 -76 -41 -35 -111 -45 -146 -22 -28 18 -54 70 -54 107 0 20 -5 17
-45 -22 -25 -24 -45 -48 -45 -52 0 -4 12 -8 28 -8 43 0 56 -13 42 -41 l-13
-23 -19 24 c-16 20 -21 21 -29 9 -13 -20 -11 -27 8 -38 14 -7 15 -12 4 -25 -7
-8 -10 -21 -6 -28 4 -7 -9 4 -29 25 -45 46 -58 49 -21 5 33 -40 102 -88 124
-87 9 0 -4 9 -28 20 -43 19 -43 20 -26 39 13 14 22 17 30 10 14 -11 45 -3 45
11 0 5 -7 12 -15 15 -20 8 -19 20 1 28 42 16 59 -59 27 -116 -30 -50 -114 -83
-153 -58 -12 8 -12 11 3 28 9 10 17 22 17 27 0 4 -10 -5 -22 -20 l-22 -28 -18
23 c-10 12 -18 35 -18 51 0 16 -3 29 -8 29 -7 0 -72 -94 -72 -104 0 -3 16 -6
35 -6 19 0 35 -4 35 -9 0 -16 -29 -33 -48 -27 -11 4 -24 0 -31 -8 -10 -12 -8
-17 9 -26 16 -9 19 -15 11 -23 -16 -16 -14 -34 6 -41 10 -4 20 -1 26 9 5 9 16
14 26 10 10 -3 24 1 31 10 11 13 10 18 -6 30 -18 13 -18 15 -2 31 15 15 17 15
32 -14 19 -37 20 -88 3 -122 -17 -35 -74 -70 -112 -70 -36 0 -80 30 -90 60 -9
30 -19 24 -34 -17 -8 -21 -16 -44 -18 -50 -4 -9 3 -11 26 -7 17 4 31 2 31 -3
0 -18 -26 -44 -40 -41 -8 2 -16 -5 -18 -14 -2 -11 2 -18 12 -18 10 0 15 -8 13
-22 -1 -14 4 -23 16 -26 11 -2 17 3 17 13 0 13 6 16 24 11 17 -4 26 -1 30 10
9 23 8 24 -14 24 -23 0 -24 4 -10 31 9 16 15 17 31 8 23 -12 49 -66 49 -100 0
-36 -31 -89 -63 -106 -40 -20 -111 -12 -142 17 -26 24 -26 24 -40 -48 -7 -32
-6 -32 19 -21 32 15 40 8 32 -26 -5 -20 -11 -25 -26 -20 -14 5 -20 2 -20 -9 0
-9 0 -19 0 -23 0 -5 5 -9 10 -9 6 -1 15 -2 20 -3 6 0 8 -12 4 -26 -5 -21 -3
-25 15 -25 16 0 21 6 21 25 0 22 3 25 25 19 21 -5 25 -3 25 15 0 14 -6 21 -20
21 -15 0 -20 7 -20 24 0 50 46 40 80 -17 36 -59 20 -140 -36 -182 -27 -20 -83
-18 -122 5 l-32 20 0 -50 0 -50 25 16 c25 16 25 16 25 -15 0 -24 -4 -31 -20
-31 -14 0 -20 -7 -20 -21 0 -18 4 -20 25 -15 22 6 25 3 25 -20 0 -19 4 -25 18
-22 9 2 18 13 20 25 2 11 12 23 24 26 25 7 19 31 -10 35 -16 3 -21 9 -18 25 5
30 33 24 73 -16 29 -29 37 -54 34 -98 -1 -8 -16 -23 -33 -32 -20 -9 -26 -16
-16 -16 9 -1 20 4 23 9 8 13 25 13 25 0 0 -13 -60 -80 -72 -80 -6 0 -8 15 -6
35 2 19 0 35 -4 35 -11 0 -21 -47 -13 -59 3 -7 -2 -11 -14 -11 -14 0 -21 8
-23 26 -2 17 -11 30 -25 35 -13 5 -23 5 -23 0 0 -5 9 -11 20 -14 12 -3 20 -14
20 -26 0 -19 -3 -20 -21 -10 -20 10 -21 9 -14 -23 14 -68 15 -70 32 -52 10 10
19 12 26 5 13 -13 1 -42 -15 -39 -7 2 -13 -4 -13 -12 0 -8 10 -16 22 -18 12
-2 25 -12 28 -23 4 -10 15 -19 25 -19 16 0 18 5 13 30 -5 26 -3 30 17 30 13 0
20 5 17 13 -2 6 -15 12 -28 12 -17 0 -25 7 -27 23 -3 18 1 22 23 22 57 0 115
-61 115 -119 0 -31 -24 -83 -48 -104 -20 -19 -21 -19 -27 17 -4 20 -11 36 -16
36 -12 0 -11 -17 2 -42 7 -14 8 -23 1 -30 -7 -7 -15 1 -26 26 -8 20 -18 36
-21 36 -3 0 -1 -9 5 -19 16 -32 13 -50 -10 -44 -20 5 -20 5 -3 -42 17 -44 19
-46 32 -26 17 27 27 27 34 -1 4 -13 0 -26 -10 -33 -24 -18 -10 -49 16 -36 14
8 20 7 25 -4 6 -17 15 -19 36 -5 12 7 12 12 3 21 -10 10 -9 15 4 24 19 14 9
35 -16 35 -10 0 -23 11 -29 25 -11 25 -11 25 33 25 35 0 52 -6 77 -29 l32 -28
-32 -41 c-22 -28 -50 -47 -85 -61 -29 -11 -44 -20 -34 -20 34 -1 84 27 119 69
34 39 37 41 47 22 19 -36 13 -96 -11 -119 -45 -41 -59 -43 -86 -14 l-24 26 16
-28 c16 -26 16 -28 -3 -35 -21 -7 -21 -7 -1 -40 22 -36 35 -40 45 -14 6 16 7
16 20 -2 13 -17 12 -21 -3 -32 -16 -12 -16 -14 1 -31 15 -16 19 -16 27 -3 8
13 11 12 24 -5 14 -19 16 -19 32 -3 15 14 15 19 4 33 -12 14 -12 18 0 25 20
12 -7 42 -30 35 -22 -7 -37 25 -18 37 21 13 67 9 104 -8 19 -9 34 -19 34 -23
0 -22 -67 -104 -101 -123 -47 -26 -45 -34 4 -13 33 14 86 76 99 115 3 10 10 5
22 -19 22 -42 14 -94 -20 -128 l-25 -25 -24 22 c-19 18 -27 20 -44 11 -28 -15
-27 -23 2 -16 15 4 28 1 36 -9 11 -13 10 -17 -8 -24 -21 -7 -20 -9 12 -41 l34
-32 7 26 c7 26 8 27 27 9 17 -16 18 -19 4 -34 -14 -15 -14 -18 1 -31 14 -11
18 -10 31 6 11 14 17 16 20 8 3 -7 11 -13 18 -13 17 0 27 27 14 36 -6 3 -8 17
-5 30 7 27 -20 47 -33 25 -6 -9 -11 -8 -21 4 -9 11 -10 19 -3 26 15 15 100 16
114 2 18 -18 -8 -80 -53 -125 -46 -46 -46 -61 -1 -20 36 32 73 90 73 115 0 24
15 21 39 -9 24 -31 37 -88 25 -114 -9 -18 -10 -18 -37 4 l-28 23 21 36 c12 21
18 37 13 37 -4 0 -18 -18 -30 -39 l-22 -39 31 -24 c36 -28 32 -43 -14 -62
l-30 -13 44 -32 43 -32 5 25 c4 20 8 23 20 16 12 -8 13 -13 3 -29 -11 -18 -10
-22 9 -32 17 -9 24 -8 33 5 7 9 19 16 28 16 25 0 32 22 12 36 -15 11 -16 16
-5 29 12 14 11 18 -1 26 -21 13 -39 11 -39 -6 0 -17 -9 -19 -30 -5 -13 9 -11
14 13 35 67 59 195 4 212 -90 3 -16 1 -36 -4 -44 -8 -12 -13 -12 -35 2 -22 15
-24 21 -16 43 6 14 10 33 10 42 -1 16 -30 -53 -30 -71 0 -4 14 -16 30 -26 l31
-18 -31 -27 -32 -26 44 -19 43 -18 3 24 c2 17 8 23 19 19 8 -3 19 -6 25 -6 6
0 8 -10 4 -25 -5 -21 -3 -25 14 -25 11 0 23 6 26 14 3 8 12 12 21 9 8 -3 19 0
24 8 13 21 11 26 -12 32 -17 5 -20 11 -15 30 4 18 1 27 -10 31 -11 4 -18 -1
-21 -14 -6 -21 -12 -24 -37 -14 -23 9 -20 21 10 49 21 19 38 25 74 25 95 0
157 -78 130 -161 -8 -23 -20 -43 -27 -46 -25 -10 -12 -20 38 -30 41 -9 49 -8
45 3 -3 8 -9 21 -12 29 -3 8 -2 15 4 15 26 0 42 -14 42 -36 0 -17 6 -24 20
-24 13 0 20 7 20 20 0 13 7 20 19 20 10 0 22 7 25 16 9 23 8 24 -18 24 -19 0
-22 4 -18 25 3 20 0 25 -17 25 -14 0 -21 -6 -21 -20 0 -21 -12 -24 -44 -11
-18 7 -17 10 16 46 31 34 41 39 91 43 54 4 58 3 92 -31 28 -28 35 -43 35 -75
0 -37 -3 -41 -27 -45 l-28 -4 28 -2 c27 -1 27 -1 11 -26 l-16 -25 48 0 c37 0
45 3 36 12 -19 19 -15 48 8 48 15 0 20 -7 20 -25 0 -18 5 -25 20 -25 15 0 20
7 20 25 0 19 5 25 21 25 14 0 19 5 17 17 -2 11 -11 17 -21 15 -13 -2 -17 4
-17 28 0 23 -4 30 -20 30 -16 0 -20 -7 -20 -30 0 -25 -4 -30 -25 -30 -30 0
-31 6 -5 47 43 71 129 88 189 37 38 -31 40 -54 6 -54 -18 0 -26 7 -31 25 -3
13 -12 29 -20 36 -10 8 -9 0 4 -30 15 -36 21 -41 50 -41 22 0 32 -5 32 -15 0
-9 -9 -15 -23 -15 -30 0 -47 -18 -47 -49 1 -25 2 -24 15 7 9 21 21 32 35 32
23 0 24 -4 10 -31 -10 -17 -7 -19 19 -19 16 0 37 3 46 6 15 6 15 8 -1 25 -9
10 -13 23 -9 28 11 20 34 12 41 -14 6 -26 12 -29 38 -19 11 4 13 11 5 31 -12
32 -12 33 6 33 9 0 15 9 15 21 0 17 -5 20 -25 17 -19 -4 -25 -1 -25 13 0 13
-7 19 -21 19 -17 0 -20 -5 -17 -25 4 -21 1 -25 -19 -25 -20 0 -23 4 -18 23 18
65 58 97 122 97 68 0 113 -52 113 -131 0 -29 4 -40 13 -36 6 2 29 10 49 17
l37 14 -31 19 c-29 17 -30 20 -13 29 14 8 21 7 31 -7 19 -26 46 -12 38 20 -5
19 -2 25 10 25 18 0 21 17 7 39 -8 12 -12 12 -25 2 -9 -8 -16 -10 -16 -5 -1
25 -18 36 -39 24 -19 -9 -20 -14 -10 -26 10 -13 10 -17 -2 -25 -35 -22 -48 11
-25 64 15 38 46 63 94 76 22 7 40 4 73 -11 42 -19 43 -21 21 -31 -18 -8 -27
-6 -49 14 l-26 24 19 -28 c16 -23 24 -27 51 -23 42 6 50 -7 19 -31 -22 -16
-23 -22 -16 -58 l8 -40 1 41 c1 28 6 44 17 48 13 5 15 0 12 -34 l-3 -39 45 26
c25 14 52 32 60 39 12 12 11 14 -10 14 -14 0 -33 7 -43 15 -18 13 -18 14 3 25
18 10 22 9 27 -9 6 -25 20 -26 47 -6 20 15 20 15 0 30 -16 12 -17 16 -5 24 21
14 5 44 -19 38 -12 -3 -23 1 -29 10 -7 13 -12 13 -30 3 -21 -11 -21 -13 -7
-29 15 -16 14 -19 -9 -29 -25 -11 -25 -11 -25 31 1 51 17 82 56 108 45 29 99
25 136 -11 l30 -31 -21 -18 c-11 -10 -21 -24 -21 -31 0 -7 9 -2 19 11 18 22
20 22 26 6 4 -9 5 -28 3 -42 -5 -22 -3 -23 15 -13 38 20 242 232 288 298 51
73 66 98 54 87 -5 -4 -18 1 -29 10 -21 18 -21 18 -3 -4 19 -21 18 -22 -8 -57
-23 -30 -33 -36 -66 -36 -44 0 -48 8 -19 35 18 16 20 16 26 1 8 -22 21 -20 35
5 9 18 8 24 -5 31 -13 7 -14 13 -6 22 16 20 -15 43 -35 26 -12 -10 -18 -10
-31 1 -14 11 -18 10 -30 -6 -13 -17 -12 -20 6 -30 20 -11 20 -12 2 -28 -26
-24 -31 -22 -48 18 -28 67 24 157 98 167 48 7 110 -29 127 -75 17 -47 8 -57
-24 -27 -18 17 -23 30 -19 44 6 20 6 21 -9 2 -13 -18 -11 -22 17 -52 17 -18
34 -30 38 -28 9 5 73 119 84 148 7 19 7 19 -16 3 -23 -16 -80 -24 -80 -11 0 3
5 14 10 25 9 16 14 17 32 8 16 -9 22 -8 29 2 13 21 11 27 -12 34 -16 5 -19 12
-15 30 7 28 -19 42 -33 17 -5 -9 -22 -17 -37 -17 -15 0 -29 -6 -31 -12 -3 -8
4 -13 16 -13 29 0 34 -15 13 -40 l-19 -23 -21 31 c-15 20 -22 45 -22 77 0 40
5 52 33 80 35 35 89 52 132 41 16 -4 37 -24 55 -52 l29 -46 25 82 c14 44 26
83 26 86 0 3 -12 -4 -26 -15 -15 -12 -37 -21 -49 -21 -18 0 -21 4 -17 25 3 20
10 25 30 23 37 -4 42 27 6 36 -26 7 -27 11 -9 61 5 15 4 17 -3 6 -9 -12 -13
-12 -26 -2 -8 7 -23 11 -33 8 -14 -4 -14 -5 4 -6 20 -1 21 -4 12 -30 -7 -21
-15 -28 -26 -24 -8 3 -19 0 -24 -8 -6 -10 -2 -17 15 -24 22 -9 23 -13 12 -38
-11 -27 -12 -27 -35 -11 -13 9 -29 31 -37 50 -28 68 17 172 82 188 45 12 101
-11 124 -50 26 -41 20 -55 -12 -28 l-23 18 22 -24 c15 -15 26 -21 32 -15 8 9
31 161 31 205 0 8 -9 0 -20 -18 -16 -26 -53 -52 -76 -52 -2 0 -4 14 -4 31 0
27 3 30 28 27 21 -2 27 1 27 17 0 14 -8 21 -27 23 -17 2 -28 9 -28 18 0 24
-28 46 -52 41 l-23 -4 23 -2 c16 -1 22 -7 22 -26 0 -20 -5 -25 -25 -25 -18 0
-25 -5 -25 -20 0 -15 7 -20 25 -20 26 0 31 -14 16 -39 -20 -31 -101 55 -101
107 0 26 32 93 52 109 44 35 121 21 164 -30 l27 -32 -7 85 c-4 47 -11 101 -16
120 l-8 35 -1 -33 c-1 -23 -11 -43 -33 -65 -29 -30 -32 -31 -39 -12 -13 35
-10 45 16 45 27 0 30 6 16 29 -5 8 -18 12 -30 8 -16 -4 -21 -1 -21 15 0 26
-24 18 -28 -10 -2 -14 -11 -22 -23 -22 -12 0 -19 -7 -19 -20 0 -17 5 -19 25
-14 22 5 25 3 25 -20 0 -28 -13 -32 -54 -16 -38 14 -66 66 -66 123 0 40 5 54
28 77 40 39 91 48 139 23 51 -27 54 -43 6 -38 l-38 5 35 -10 c19 -5 39 -5 44
0 11 11 -9 94 -51 210 -208 563 -700 957 -1293 1036 -135 18 -155 17 -108 -2
24 -10 42 -27 53 -51 20 -41 16 -47 -24 -38 -22 5 -31 12 -31 26 0 10 -7 19
-15 19 -8 0 -15 -9 -15 -19 0 -14 -7 -19 -25 -17 -14 0 -25 7 -26 16 -1 8 -4
4 -8 -10 -9 -30 2 -97 18 -113 10 -9 10 -6 2 16 -18 46 -14 57 19 57 24 0 29
-4 27 -21 -1 -12 4 -24 11 -26 7 -3 12 5 12 21 0 24 3 26 28 20 37 -9 38 -11
22 -42 -22 -39 -76 -64 -125 -58 -54 7 -105 60 -105 111 0 50 25 94 63 110 31
14 31 14 -33 13 -36 0 -83 -4 -105 -8z m518 -46 c52 -18 87 -54 87 -91 0 -19
-4 -24 -16 -19 -9 3 -20 6 -26 6 -6 0 -8 9 -5 20 4 15 0 20 -13 20 -10 0 -20
-6 -23 -14 -4 -9 -14 -12 -26 -9 -25 6 -30 -24 -6 -33 8 -4 15 -14 15 -24 0
-16 30 -38 30 -22 0 4 4 13 9 21 7 10 13 11 31 1 21 -11 21 -12 3 -32 -28 -31
-68 -48 -114 -48 -35 0 -48 6 -80 39 -27 27 -39 47 -39 67 0 51 37 102 90 126
23 10 33 9 83 -8z m272 -84 c14 -5 23 -14 20 -20 -3 -5 0 -7 8 -4 22 8 77 -61
77 -96 0 -32 -9 -36 -41 -19 -13 7 -18 16 -14 28 7 22 -21 37 -29 16 -3 -8
-13 -11 -24 -8 -26 6 -40 -17 -18 -29 11 -6 15 -16 11 -28 -8 -25 13 -36 29
-15 10 14 16 15 34 6 29 -15 28 -23 -7 -44 -83 -49 -211 15 -211 106 0 32 -2
31 44 12 20 -8 36 -13 36 -10 0 3 -18 14 -41 23 l-40 17 22 29 c34 44 88 57
144 36z m-441 -145 c163 -25 376 -105 523 -198 128 -81 308 -259 391 -387 100
-155 179 -362 208 -540 25 -161 15 -386 -25 -545 -36 -140 -130 -339 -213
-450 -121 -162 -315 -327 -491 -417 -75 -37 -239 -92 -342 -113 -333 -69 -719
11 -1013 209 -296 200 -486 485 -569 851 -27 121 -25 385 5 526 55 263 149
446 342 659 186 206 456 350 755 404 106 19 306 19 429 1z m714 -14 c59 -30
85 -64 85 -111 0 -52 -14 -67 -38 -40 -14 16 -15 23 -6 34 7 8 10 20 6 26 -9
15 -32 12 -39 -6 -5 -12 -9 -14 -20 -5 -10 8 -16 8 -25 -3 -10 -11 -8 -16 5
-24 16 -9 16 -12 4 -27 -11 -14 -11 -18 2 -32 14 -14 17 -13 23 6 8 27 19 27
38 -3 15 -22 14 -24 -9 -35 -34 -15 -68 -14 -111 4 -44 19 -83 62 -84 95 -6
116 72 171 169 121z m222 -196 c37 -19 80 -75 80 -104 0 -19 -14 -56 -26 -70
-3 -3 -11 4 -18 15 -10 14 -11 23 -4 32 16 19 -6 39 -25 23 -11 -9 -17 -8 -27
4 -7 9 -20 13 -29 10 -9 -3 -5 4 9 15 14 11 35 23 48 26 12 3 22 10 22 15 0 5
-17 1 -37 -10 -37 -19 -85 -64 -112 -106 -7 -11 2 -3 20 17 l34 38 17 -22 c17
-20 17 -23 1 -40 -12 -14 -14 -21 -5 -30 9 -9 16 -7 31 6 19 17 20 17 31 -4
16 -30 1 -44 -47 -42 -52 2 -98 29 -117 69 -26 55 -20 101 21 152 2 3 14 -6
28 -19 14 -13 28 -21 31 -18 3 4 -6 14 -20 23 -14 10 -23 21 -20 26 8 14 82
10 114 -6z m193 -243 c41 -42 51 -82 33 -126 -16 -39 -30 -46 -40 -19 -5 11
-1 22 10 30 9 7 14 19 11 28 -7 17 -23 20 -32 4 -5 -7 -13 -5 -24 5 -22 20
-51 5 -32 -18 10 -12 9 -16 -7 -25 -14 -7 -18 -17 -15 -31 6 -24 11 -25 35 -4
16 16 18 15 27 -7 12 -32 6 -39 -34 -39 -81 0 -130 51 -122 130 7 63 49 100
115 100 40 0 53 -5 75 -28z m105 -222 c18 -11 30 -25 27 -30 -3 -6 -1 -10 4
-10 26 0 8 -19 -21 -23 -32 -4 -32 -4 5 -5 22 -1 40 -8 43 -16 8 -20 -13 -91
-31 -106 -18 -15 -20 -13 -29 18 -6 17 -3 22 9 22 10 0 15 6 13 18 -3 11 -12
16 -26 15 -14 -2 -22 3 -22 12 0 8 -9 15 -20 15 -17 0 -19 -5 -14 -25 5 -19 2
-25 -10 -25 -18 0 -22 -25 -6 -35 6 -4 17 -2 24 4 11 9 15 6 20 -11 11 -41 7
-48 -25 -48 -43 0 -105 62 -115 115 -18 100 85 169 174 115z m-304 -1579 c3
-5 0 -14 -8 -20 -10 -8 -22 -7 -50 4 -48 20 -46 11 4 -15 39 -20 39 -20 50 0
14 26 26 25 44 -2 27 -42 29 -72 6 -98 -20 -23 -21 -23 -36 -4 -14 18 -14 18
-4 -5 10 -20 8 -27 -21 -57 -24 -25 -39 -33 -57 -29 -35 6 -46 19 -27 35 12
10 18 10 30 0 8 -6 19 -9 25 -5 14 9 13 32 -2 38 -9 4 -4 14 14 30 25 24 26
26 9 41 -26 24 -37 19 -15 -6 18 -21 18 -21 0 -15 -10 4 -25 2 -33 -4 -11 -9
-17 -8 -27 6 -11 16 -15 17 -29 4 -14 -13 -14 -16 1 -32 14 -16 14 -19 -4 -31
-17 -13 -20 -12 -31 7 -16 28 -16 69 -2 101 11 24 12 24 51 10 47 -16 51 -17
44 -5 -3 4 -19 11 -36 14 -36 8 -38 20 -7 35 27 13 104 15 111 3z"/>
<path d="M1916 3101 c-23 -43 -20 -52 5 -12 11 18 18 35 15 38 -2 3 -12 -9
-20 -26z"/>
<path d="M1863 3087 c-4 -9 -21 -17 -38 -20 l-30 -4 31 -2 c29 -1 64 22 51 35
-3 3 -9 -1 -14 -9z"/>
<path d="M1795 3030 c3 -5 13 -10 21 -10 8 0 14 -8 15 -17 0 -13 2 -14 6 -4 3
8 -2 20 -13 28 -21 15 -38 17 -29 3z"/>
<path d="M1883 2975 c0 -27 2 -38 4 -22 2 15 2 37 0 50 -2 12 -4 0 -4 -28z"/>
<path d="M2185 3030 c-3 -6 1 -7 9 -4 18 7 21 14 7 14 -6 0 -13 -4 -16 -10z"/>
<path d="M2110 3000 c8 -5 22 -9 30 -9 10 0 8 3 -5 9 -27 12 -43 12 -25 0z"/>
<path d="M2186 2961 c-14 -21 -27 -56 -30 -77 l-6 -39 14 42 c7 23 23 58 36
77 12 20 19 36 16 36 -3 0 -17 -17 -30 -39z"/>
<path d="M2116 2894 c-4 -14 -5 -28 -3 -31 3 -2 8 8 11 23 4 14 5 28 3 31 -3
2 -8 -8 -11 -23z"/>
<path d="M1400 2894 c-113 -19 -157 -30 -254 -63 -133 -46 -213 -85 -323 -158
-86 -57 -232 -197 -302 -287 -108 -140 -202 -340 -242 -514 -29 -129 -36 -356
-15 -502 88 -597 578 -1057 1193 -1118 378 -38 786 109 1055 380 194 196 314
417 370 683 54 264 11 600 -110 840 -123 246 -349 479 -582 599 -200 104 -342
138 -590 142 -96 1 -186 0 -200 -2z m65 -34 c5 -8 11 -7 21 1 11 9 17 9 28 0
11 -9 15 -9 19 1 4 11 9 10 27 0 19 -12 24 -12 32 0 7 10 11 9 23 -6 13 -17
15 -18 15 -3 0 19 25 23 35 7 5 -8 11 -7 21 1 11 9 16 6 23 -12 8 -21 10 -22
16 -6 9 21 35 23 35 2 0 -8 5 -15 10 -15 6 0 10 7 10 15 0 22 21 18 27 -5 5
-20 7 -20 24 -4 17 16 19 16 25 0 4 -10 13 -14 24 -11 10 3 21 1 25 -5 4 -6
15 -8 26 -5 13 5 19 2 19 -10 0 -11 6 -14 25 -9 19 5 25 2 25 -11 0 -14 3 -15
15 -5 16 14 35 5 35 -16 0 -12 4 -13 21 -4 17 10 21 8 26 -8 3 -14 11 -18 29
-14 17 3 24 0 24 -11 0 -10 6 -13 20 -10 14 4 20 0 20 -12 0 -12 5 -15 20 -10
15 5 20 2 20 -13 0 -15 5 -19 20 -15 14 4 20 0 20 -10 0 -10 6 -13 20 -10 14
4 20 0 20 -12 0 -12 5 -15 16 -11 10 4 18 0 21 -13 3 -12 11 -17 19 -14 8 3
14 -1 14 -11 0 -9 7 -16 15 -16 9 0 18 -7 21 -15 4 -8 15 -15 25 -15 13 0 19
-7 19 -24 0 -19 4 -23 20 -19 15 4 20 0 20 -16 0 -12 6 -21 15 -21 8 0 15 -9
15 -20 0 -12 5 -17 14 -14 20 8 30 -14 16 -32 -11 -12 -9 -14 11 -12 18 2 25
-2 27 -19 2 -13 10 -23 18 -23 8 0 14 -9 14 -19 0 -10 7 -21 15 -25 8 -3 15
-15 15 -26 0 -12 7 -20 16 -20 11 0 15 -6 11 -19 -3 -13 1 -21 15 -24 15 -4
18 -11 13 -26 -5 -16 -2 -21 10 -21 13 0 16 -6 11 -25 -5 -19 -2 -25 10 -25
11 0 15 -6 11 -19 -3 -12 1 -22 10 -25 9 -4 13 -14 10 -25 -3 -12 1 -22 10
-25 9 -4 13 -13 9 -22 -4 -10 1 -22 11 -30 15 -10 16 -15 5 -26 -10 -10 -9
-16 9 -29 20 -15 20 -17 4 -32 -15 -16 -13 -21 8 -18 18 3 19 -33 1 -46 -18
-13 -18 -14 4 -19 23 -7 29 -28 11 -40 -8 -5 -6 -10 5 -16 18 -10 22 -38 4
-38 -6 0 -4 -8 6 -19 15 -16 15 -19 1 -31 -14 -11 -13 -14 2 -26 17 -13 17
-15 1 -27 -13 -11 -15 -16 -5 -26 9 -9 9 -16 0 -31 -10 -14 -10 -20 0 -23 9
-3 9 -9 1 -23 -8 -14 -8 -24 0 -37 8 -13 8 -20 -3 -26 -7 -5 -10 -14 -6 -20 4
-7 3 -20 -1 -29 -4 -9 -6 -27 -5 -39 2 -15 -3 -23 -13 -23 -19 0 -20 -11 -3
-29 10 -10 8 -15 -6 -25 -11 -8 -15 -20 -11 -30 4 -11 -1 -22 -12 -31 -11 -8
-14 -14 -6 -15 18 0 15 -30 -4 -30 -11 0 -14 -6 -9 -20 4 -13 1 -22 -9 -26
-11 -4 -14 -14 -10 -30 4 -15 2 -24 -5 -24 -6 0 -11 -9 -11 -20 0 -11 -4 -20
-10 -20 -5 0 -10 -11 -10 -25 0 -14 -6 -28 -14 -31 -8 -3 -12 -12 -9 -20 3 -7
-2 -17 -11 -20 -9 -3 -16 -15 -16 -25 0 -11 -7 -19 -16 -19 -10 0 -14 -6 -11
-14 6 -16 -16 -40 -26 -29 -4 3 -7 -4 -7 -16 0 -12 -7 -24 -15 -27 -8 -4 -15
-13 -15 -21 0 -8 -9 -17 -20 -20 -11 -3 -20 -14 -20 -25 0 -11 -8 -22 -18 -25
-10 -2 -22 -14 -27 -26 -6 -13 -17 -21 -28 -19 -12 2 -17 -4 -17 -23 0 -18 -5
-25 -19 -25 -11 0 -21 -9 -24 -21 -4 -16 -11 -19 -26 -14 -17 5 -21 2 -21 -14
0 -16 -6 -21 -25 -21 -16 0 -25 -6 -25 -15 0 -8 -8 -15 -19 -15 -11 0 -21 -9
-24 -21 -4 -15 -11 -19 -25 -15 -13 4 -22 1 -26 -9 -4 -11 -13 -14 -26 -10
-16 5 -20 2 -20 -14 0 -23 -19 -28 -38 -9 -9 9 -12 7 -12 -11 0 -19 -4 -23
-24 -19 -16 3 -27 0 -30 -9 -4 -9 -13 -12 -26 -8 -14 5 -20 2 -20 -10 0 -10
-6 -15 -17 -13 -10 2 -23 -3 -29 -11 -10 -13 -14 -13 -28 -2 -13 11 -16 11
-16 -2 0 -22 -28 -29 -39 -9 -10 16 -10 16 -11 0 0 -22 -19 -33 -33 -19 -7 7
-14 5 -23 -7 -12 -15 -15 -15 -24 -2 -8 12 -12 13 -19 2 -4 -8 -14 -12 -22
-11 -8 1 -23 -2 -33 -6 -13 -6 -21 -4 -24 4 -3 8 -8 6 -18 -6 -12 -16 -15 -16
-25 -3 -8 11 -12 12 -16 3 -6 -15 -33 -17 -33 -3 0 6 -8 5 -20 -2 -17 -11 -22
-10 -30 2 -6 10 -10 11 -10 3 0 -7 -9 -13 -20 -13 -11 0 -20 5 -20 11 0 8 -4
8 -14 0 -9 -8 -16 -8 -20 -2 -4 5 -27 8 -51 5 -28 -2 -45 0 -45 7 0 6 -7 8
-17 5 -9 -4 -20 -1 -25 6 -6 10 -10 10 -18 -2 -7 -11 -12 -12 -21 -3 -6 6 -18
9 -25 6 -8 -3 -16 2 -20 10 -3 9 -13 13 -25 10 -12 -3 -19 0 -19 8 0 10 -3 10
-11 2 -13 -13 -47 1 -63 26 -7 11 -10 11 -17 0 -8 -12 -11 -11 -22 2 -6 9 -18
14 -24 12 -7 -3 -13 3 -13 12 0 12 -6 15 -20 10 -12 -4 -20 -2 -20 5 0 7 -8 9
-20 5 -11 -4 -20 -2 -20 4 0 6 -7 11 -15 11 -9 0 -18 6 -21 14 -3 8 -12 12
-20 9 -10 -3 -14 2 -14 18 0 18 -3 20 -9 10 -12 -19 -32 -5 -24 17 6 14 4 15
-8 5 -18 -15 -45 -1 -34 18 6 9 3 11 -9 6 -11 -4 -19 -1 -24 11 -4 9 -14 17
-22 17 -8 0 -14 8 -14 18 2 13 -3 16 -17 12 -13 -5 -19 -1 -19 10 0 10 -7 15
-17 13 -11 -2 -18 3 -18 12 0 8 -9 18 -20 21 -11 3 -19 13 -19 22 1 10 -6 17
-17 17 -10 0 -19 6 -19 14 0 8 -7 17 -16 20 -9 4 -14 13 -10 21 4 10 -1 15
-14 15 -11 0 -20 6 -20 14 0 8 -7 17 -16 20 -8 3 -12 10 -9 16 3 6 -1 13 -9
16 -9 3 -16 10 -16 15 0 4 -11 20 -25 35 -13 14 -22 30 -20 34 3 4 -2 11 -11
14 -9 3 -14 13 -11 20 3 8 -1 17 -9 20 -8 3 -14 15 -14 26 0 11 -5 20 -11 20
-6 0 -9 9 -6 20 3 13 0 20 -9 20 -8 0 -14 9 -14 19 0 11 -6 21 -12 24 -10 3
-10 7 1 20 12 15 11 17 -4 17 -10 0 -15 6 -13 18 2 9 -3 23 -12 29 -12 10 -13
14 -2 21 11 7 10 11 -3 16 -11 4 -15 12 -11 23 4 9 1 20 -6 24 -9 6 -9 11 0
22 10 12 9 16 -3 21 -11 4 -14 13 -10 26 4 12 2 20 -5 20 -7 0 -9 8 -5 20 4
11 2 20 -4 20 -15 0 -14 27 2 33 9 4 9 8 -2 15 -8 6 -11 16 -8 24 3 8 1 21 -3
29 -5 7 -5 18 1 25 7 8 6 14 -1 19 -16 10 -12 35 8 35 14 0 13 4 -7 19 l-24
19 21 13 c19 12 19 14 4 25 -13 10 -14 15 -5 25 10 10 10 16 1 27 -10 11 -9
17 5 26 13 10 14 15 4 25 -9 10 -8 15 5 25 14 10 15 15 5 25 -9 10 -8 15 5 25
13 9 14 16 6 24 -8 8 -8 15 1 25 6 8 9 22 5 31 -4 10 0 18 10 22 13 5 14 10 5
20 -13 16 -4 34 19 35 11 0 12 3 5 6 -23 9 -15 43 10 44 12 0 16 3 10 6 -17 6
-17 43 0 43 8 0 13 10 13 23 -1 17 4 21 19 19 16 -3 18 -1 8 9 -19 20 -15 39
7 39 18 0 19 3 10 21 -10 17 -8 21 9 26 12 3 17 11 14 19 -3 8 3 17 13 21 11
5 19 16 19 26 0 9 5 17 10 16 6 0 13 10 16 23 3 13 12 22 21 22 11 -1 13 6 10
24 -4 21 -2 24 15 20 16 -4 19 -2 16 13 -4 14 0 19 15 19 16 0 19 5 14 22 -4
18 -2 20 16 16 16 -5 22 -1 24 16 2 14 9 20 20 18 13 -2 17 3 15 20 -1 16 3
22 14 20 10 -1 19 6 22 19 3 11 10 18 15 15 5 -3 12 4 15 15 4 16 11 19 27 14
11 -4 20 -3 19 2 -4 23 2 35 16 29 9 -3 15 0 15 9 0 21 19 28 36 14 13 -11 15
-10 12 7 -2 15 2 18 20 17 14 -2 22 3 22 12 0 8 5 15 11 15 7 0 17 8 24 17 11
15 15 15 29 4 14 -12 16 -12 11 2 -4 8 -1 18 6 23 7 4 15 2 17 -4 6 -20 22
-13 22 9 0 14 5 19 15 16 8 -4 17 -2 21 4 3 6 12 8 20 5 8 -3 14 1 14 10 0 12
6 15 25 10 18 -5 25 -2 25 9 0 18 12 19 28 3 9 -9 12 -8 12 5 0 19 30 24 30 5
1 -8 7 -5 15 6 8 11 21 16 30 13 8 -4 15 -2 15 4 0 7 10 9 24 5 15 -4 26 -1
29 7 3 9 7 9 20 -2 15 -12 17 -11 17 3 0 18 25 22 36 5 5 -8 10 -6 16 5 10 18
24 21 33 6z"/>
<path d="M1370 2770 c-94 -19 -159 -36 -199 -52 -14 -6 -33 -12 -41 -14 -33
-7 -180 -88 -180 -100 0 -8 -6 -11 -13 -8 -23 8 -137 -83 -255 -204 -103 -107
-117 -126 -166 -227 -34 -70 -49 -112 -42 -115 13 -6 13 -30 2 -77 -5 -23 -16
-34 -37 -42 -39 -13 -37 -31 4 -32 17 -1 24 -3 14 -6 -9 -2 -17 -10 -17 -18 0
-8 -7 -11 -19 -8 -16 4 -21 -4 -31 -54 -32 -152 -25 -400 15 -540 75 -264 216
-480 423 -644 329 -263 788 -335 1183 -186 392 148 692 509 764 921 19 109 19
325 1 426 -30 161 -127 397 -168 408 -14 3 -16 7 -7 13 10 6 8 13 -5 34 -12
19 -16 38 -13 60 5 31 4 33 -31 40 -28 5 -50 21 -90 66 -110 121 -324 259
-485 313 -184 62 -435 81 -607 46z m609 -80 c2 0 0 -7 -3 -16 -4 -12 -1 -14
14 -9 11 4 20 2 20 -4 0 -6 -4 -11 -9 -11 -5 0 -8 -8 -6 -17 2 -10 4 -18 5
-18 1 0 4 -13 6 -29 5 -27 4 -28 -13 -15 -17 13 -17 13 -1 -6 12 -15 14 -25 7
-38 -6 -9 -15 -14 -21 -11 -7 4 -8 2 -4 -5 4 -6 12 -9 17 -6 18 12 9 -5 -19
-32 -29 -29 -74 -44 -51 -17 8 9 8 14 1 14 -6 0 -14 -5 -17 -10 -4 -6 -11 -8
-16 -5 -5 4 -9 2 -9 -3 0 -6 7 -12 15 -16 25 -9 19 -75 -12 -120 -15 -23 -28
-42 -29 -44 -1 -2 -13 2 -26 8 -17 9 -15 5 10 -19 45 -42 65 -94 65 -172 0
-123 -73 -205 -191 -216 l-62 -6 0 -96 c0 -62 4 -101 12 -109 9 -9 -1 -12 -48
-12 l-59 0 0 341 0 341 85 -5 c47 -3 92 -8 102 -12 10 -4 16 -2 15 7 0 7 1 24
1 37 2 20 4 21 17 11 27 -23 16 6 -14 34 -24 23 -28 32 -21 56 5 18 4 37 -4
52 -7 13 -11 29 -9 35 2 6 -1 15 -8 19 -9 5 -10 2 -6 -9 5 -14 0 -17 -23 -17
-43 0 -63 -25 -55 -69 9 -49 23 -63 57 -59 25 4 26 3 14 -11 -8 -9 -19 -27
-23 -39 l-9 -23 -23 21 c-13 11 -28 20 -33 20 -4 0 -8 9 -8 20 0 11 5 20 11
20 7 0 9 16 4 48 -5 41 -3 51 14 66 12 11 21 23 21 29 0 42 69 114 126 130 15
5 95 3 193 -3z m46 -71 c11 -16 1 -19 -13 -3 -7 8 -8 14 -3 14 5 0 13 -5 16
-11z m93 -80 c-3 -8 -7 -3 -11 10 -4 17 -3 21 5 13 5 -5 8 -16 6 -23z m-971
-61 c-3 -8 -6 -5 -6 6 -1 11 2 17 5 13 3 -3 4 -12 1 -19z m890 7 c0 -8 -4 -12
-9 -9 -5 3 -6 10 -3 15 9 13 12 11 12 -6z m23 -65 c-10 -23 -10 -22 -5 9 3 18
6 43 7 55 1 12 3 9 5 -9 2 -17 -1 -42 -7 -55z m77 18 c-3 -7 -5 -2 -5 12 0 14
2 19 5 13 2 -7 2 -19 0 -25z m-126 -1 c-10 -9 -11 -8 -5 6 3 10 9 15 12 12 3
-3 0 -11 -7 -18z m-1051 -59 c0 -16 -3 -19 -11 -11 -6 6 -8 16 -5 22 11 17 16
13 16 -11z m1014 7 c2 -6 -5 -11 -15 -11 -10 0 -20 5 -23 11 -2 6 5 11 15 11
10 0 20 -5 23 -11z m53 -17 c-3 -7 -5 -2 -5 12 0 14 2 19 5 13 2 -7 2 -19 0
-25z m30 2 c1 -11 -2 -18 -8 -15 -11 7 -12 35 -1 35 4 0 8 -9 9 -20z m-957
-20 c0 -5 -5 -10 -11 -10 -5 0 -7 5 -4 10 3 6 8 10 11 10 2 0 4 -4 4 -10z
m-235 -42 c-4 -13 -22 -51 -41 -86 -19 -34 -34 -73 -34 -85 0 -17 2 -19 9 -8
5 8 16 11 26 7 26 -10 -2 -38 -34 -34 -21 2 -27 9 -29 35 -2 17 4 55 12 83 18
59 13 80 -19 80 -52 0 -109 -107 -121 -225 -3 -27 -6 -64 -8 -80 -4 -30 -3
-31 32 -27 59 5 82 12 82 23 0 6 -9 8 -20 4 -11 -3 -20 -2 -20 3 0 19 37 19
48 1 12 -18 45 -20 137 -4 36 6 38 5 22 -8 -16 -14 -76 -28 -177 -44 -19 -3
-47 -12 -62 -19 -29 -15 -37 -7 -16 14 9 9 8 12 -5 12 -13 0 -17 -9 -17 -33 0
-48 28 -147 51 -182 12 -16 18 -21 15 -11 -5 16 -4 17 8 6 9 -6 14 -17 13 -23
-1 -7 12 -13 30 -15 22 -2 37 3 53 20 21 23 22 33 8 113 -5 32 37 32 58 0 23
-36 14 -99 -22 -136 -52 -54 -162 -48 -221 13 -113 117 -117 411 -7 555 38 50
94 73 182 73 71 0 73 -1 67 -22z m266 6 c103 -30 155 -94 167 -203 4 -45 7
-51 13 -31 l7 25 1 -27 c1 -18 -4 -28 -13 -28 -8 0 -17 -15 -20 -35 -9 -46
-81 -123 -124 -131 -18 -4 -32 -8 -32 -11 0 -2 16 -18 36 -35 22 -20 56 -71
89 -137 59 -119 86 -151 109 -132 8 7 20 10 26 6 7 -4 9 2 4 19 -7 31 10 35
26 7 14 -27 14 -26 -25 -41 -19 -7 -32 -17 -29 -22 3 -4 -12 -8 -34 -8 -52 0
-75 24 -158 166 -67 117 -108 174 -125 174 -12 0 -11 -177 1 -201 10 -18 7
-19 -48 -19 l-60 0 10 44 c11 53 6 594 -6 619 -7 15 -1 17 61 17 38 0 94 -7
124 -16z m341 4 c-8 -8 -12 -50 -12 -125 l0 -113 25 0 c14 0 28 -7 32 -15 9
-24 -4 -29 -31 -12 l-24 16 -4 -47 c-7 -95 0 -127 32 -146 17 -9 30 -21 30
-27 0 -14 -27 -11 -44 7 -15 14 -16 10 -16 -39 0 -53 1 -55 30 -61 17 -3 30
-10 30 -15 0 -6 -13 -8 -30 -4 -29 5 -30 4 -30 -29 0 -19 5 -39 12 -46 9 -9
-3 -12 -56 -12 -58 0 -67 2 -57 14 9 10 11 103 9 340 l-3 326 60 0 c46 0 56
-3 47 -12z m858 -3 c0 -8 -9 -48 -20 -87 -18 -64 -27 -134 -13 -100 5 13 43
17 43 4 0 -28 -61 -44 -76 -20 -4 6 -7 45 -5 86 2 83 -7 102 -50 102 l-29 0 0
-313 c0 -230 3 -316 12 -325 9 -9 -3 -12 -57 -12 -54 0 -66 3 -57 12 9 9 12
95 12 326 l0 313 -37 -3 -38 -3 -1 -86 c0 -47 -4 -91 -8 -97 -9 -16 -49 -15
-64 0 -18 18 -15 28 9 28 11 0 17 -4 14 -10 -3 -5 -1 -10 4 -10 16 0 13 38 -9
110 -33 109 -48 100 175 100 167 0 195 -2 195 -15z m242 -22 c-2 -21 10 -116
27 -210 17 -95 31 -176 31 -180 0 -5 7 1 16 12 13 17 16 18 25 5 11 -18 3 -71
-13 -81 -14 -9 -4 -102 17 -153 l15 -36 -57 0 -58 0 -1 70 c-1 39 -4 73 -7 77
-11 10 -127 -19 -160 -41 -34 -23 -49 -61 -35 -88 8 -16 3 -18 -37 -18 -45 0
-54 7 -35 26 13 13 150 584 150 624 l0 30 63 0 63 0 -4 -37z m-522 -13 c0 -5
-4 -10 -10 -10 -5 0 -10 5 -10 10 0 6 5 10 10 10 6 0 10 -4 10 -10z m-1143
-66 c-3 -3 -12 -4 -19 -1 -8 3 -5 6 6 6 11 1 17 -2 13 -5z m423 -74 c0 -5 -4
-10 -10 -10 -5 0 -10 5 -10 10 0 6 5 10 10 10 6 0 10 -4 10 -10z m-604 -77
c-6 -6 -36 9 -36 18 0 5 9 4 20 -3 10 -7 18 -14 16 -15z m1492 18 c8 -4 13
-11 13 -15 -1 -14 12 -36 23 -37 13 -1 81 -78 74 -84 -5 -6 -131 119 -136 135
-4 12 8 13 26 1z m-1438 -15 c0 -3 -4 -8 -10 -11 -5 -3 -10 -1 -10 4 0 6 5 11
10 11 6 0 10 -2 10 -4z m1208 -45 c3 -8 0 -11 -6 -7 -13 8 -44 -3 -37 -14 3
-4 -2 -10 -10 -14 -19 -7 -21 40 -2 48 21 8 50 2 55 -13z m59 -67 c-4 -4 -15
0 -25 9 -10 10 -24 17 -32 17 -10 0 -10 3 0 16 12 13 16 12 39 -10 14 -14 22
-29 18 -32z m630 24 c-3 -8 -6 -5 -6 6 -1 11 2 17 5 13 3 -3 4 -12 1 -19z
m-1162 -9 c11 -17 -1 -21 -15 -4 -8 9 -8 15 -2 15 6 0 14 -5 17 -11z m796 -36
c13 -16 12 -17 -3 -4 -10 7 -18 15 -18 17 0 8 8 3 21 -13z m-1821 -13 c0 -5
-4 -10 -10 -10 -5 0 -10 5 -10 10 0 6 5 10 10 10 6 0 10 -4 10 -10z m305 -19
c3 -5 1 -12 -5 -16 -5 -3 -10 1 -10 9 0 18 6 21 15 7z m-71 -57 l-38 -35 39
-34 c22 -18 37 -37 32 -41 -4 -4 -16 1 -28 12 -55 52 -78 79 -69 82 5 2 10 16
10 30 0 18 3 23 9 14 4 -7 6 -25 3 -40 l-5 -27 20 25 c12 13 19 31 16 40 -4
13 -4 13 6 0 9 -13 11 -12 11 3 0 10 5 15 10 12 6 -3 10 0 11 7 0 10 2 10 6 1
2 -7 -12 -29 -33 -49z m2029 -20 c27 -100 29 -366 3 -484 -44 -204 -167 -449
-280 -559 -33 -32 -34 -33 -45 -13 -11 22 -46 26 -68 9 -20 -15 -16 -57 5 -56
10 0 12 3 5 6 -15 6 -17 43 -3 43 6 0 10 -8 10 -17 0 -10 4 -14 8 -8 11 15 42
17 42 3 0 -19 -98 -109 -173 -158 -66 -44 -84 -49 -79 -25 1 7 -9 43 -22 80
-17 47 -20 63 -10 53 9 -8 16 -21 18 -29 1 -8 7 -22 13 -33 9 -16 11 -14 17
20 6 30 4 41 -10 51 -10 7 -15 15 -12 19 9 8 50 -15 43 -25 -3 -5 2 -11 10
-15 8 -3 17 0 21 6 5 7 2 8 -6 3 -10 -6 -12 -4 -7 8 3 9 0 23 -9 31 -9 9 -10
17 -4 21 5 3 10 1 10 -6 0 -8 4 -8 16 2 13 10 17 10 24 -1 5 -8 6 -19 3 -25
-4 -5 -2 -6 2 -2 5 4 8 27 6 49 -3 39 -1 41 14 28 16 -14 17 -12 10 20 -7 34
-7 35 12 17 11 -9 23 -14 26 -10 10 10 8 33 -3 33 -5 0 -7 -8 -3 -17 3 -10 3
-15 -1 -12 -15 13 -15 68 0 79 8 7 14 20 14 29 0 10 -3 12 -8 4 -4 -6 -7 11
-7 37 0 31 3 43 8 34 6 -11 12 -12 21 -5 20 17 49 6 67 -28 l17 -31 7 27 c5
21 8 24 16 12 11 -18 11 -1 -1 26 -8 20 -9 20 -9 0 -1 -18 -2 -18 -17 -3 -16
16 -11 43 7 33 18 -12 8 4 -22 34 -17 17 -28 35 -24 41 3 5 2 10 -4 10 -6 0
-13 10 -16 23 -7 28 -57 51 -93 43 -56 -13 -57 -13 -62 33 -4 32 -11 47 -25
53 -19 8 -19 8 1 5 15 -3 24 4 33 24 7 16 17 29 22 29 15 0 10 -17 -6 -24 -18
-7 -20 -27 -2 -24 18 4 35 38 29 60 -2 10 -13 23 -23 29 -14 7 -18 6 -15 -3 1
-7 1 -10 -1 -5 -3 4 -9 5 -14 2 -5 -4 -6 1 -3 9 7 19 53 29 90 20 27 -7 28 -7
11 10 -20 20 -20 23 -7 31 6 4 9 1 8 -7 -2 -7 5 -12 14 -12 10 1 15 -2 12 -7
-9 -15 26 -23 39 -9 9 10 9 12 -3 8 -12 -4 -15 1 -14 21 1 14 2 27 3 29 0 1
15 -11 32 -28 30 -28 49 -31 49 -9 0 6 -5 7 -12 3 -7 -5 -8 -3 -4 5 5 7 14 10
22 7 8 -3 14 0 14 7 0 8 3 8 9 -2 5 -8 11 -9 15 -3 3 6 2 13 -4 17 -15 9 -12
25 5 25 8 0 15 7 15 15 0 11 -11 14 -45 12 -40 -2 -43 -1 -30 14 8 8 12 19 8
24 -5 4 6 5 22 1 28 -7 29 -6 10 7 -11 9 -24 12 -30 9 -17 -11 -35 -11 -42 0
-3 6 -1 8 4 5 6 -4 13 3 16 15 4 15 -1 29 -18 44 -31 28 -31 33 -2 28 12 -2
16 -2 10 2 -7 3 -13 11 -13 17 0 6 11 0 25 -13 19 -18 22 -26 13 -33 -9 -6 -7
-7 5 -3 10 3 28 1 39 -5 21 -11 21 -12 -3 -25 -22 -12 -17 -13 51 -12 41 1 77
4 80 7 9 11 68 41 80 41 6 0 8 -6 4 -12 -4 -8 -3 -10 2 -5 5 5 9 12 9 15 2 26
19 53 30 48 9 -3 12 0 8 10 -3 9 -12 12 -25 8 -14 -4 -18 -2 -14 5 5 7 1 9 -8
5 -9 -3 -13 -10 -10 -15 3 -5 1 -9 -5 -9 -13 0 -21 29 -26 89 -3 42 -1 50 16
54 11 3 18 11 17 17 -2 7 3 15 10 17 11 4 12 1 3 -15 -14 -26 -14 -52 0 -52 6
0 9 6 6 13 -2 6 0 23 5 36 6 16 4 28 -4 39 -11 13 -10 14 2 10 9 -2 23 -34 33
-74z m-503 30 c0 -2 -13 2 -30 11 -16 9 -30 18 -30 21 0 2 14 -2 30 -11 17 -9
30 -18 30 -21z m-1073 4 c-3 -8 -6 -5 -6 6 -1 11 2 17 5 13 3 -3 4 -12 1 -19z
m654 5 c13 -16 12 -17 -3 -4 -10 7 -18 15 -18 17 0 8 8 3 21 -13z m-561 -18
c-1 -3 13 -31 30 -61 37 -66 36 -93 -2 -38 -24 35 -52 129 -33 112 3 -3 6 -9
5 -13z m580 -9 c-8 -7 -34 -18 -57 -24 -35 -8 -43 -7 -43 4 0 9 12 14 33 15
17 0 41 4 52 9 29 12 31 12 15 -4z m-130 -5 c14 -4 20 -10 15 -13 -14 -8 -75
2 -75 13 0 10 23 10 60 0z m-639 -41 c5 0 9 -15 8 -32 0 -18 -3 -27 -6 -20 -2
6 -10 12 -17 12 -9 0 -12 12 -11 33 3 41 6 47 12 25 2 -10 9 -18 14 -18z m783
4 c3 -9 4 -19 1 -24 -7 -12 -55 -19 -55 -7 0 6 -4 6 -12 0 -18 -14 -67 -22
-74 -12 -10 17 23 38 66 43 23 2 44 7 48 10 10 10 20 6 26 -10z m656 -34 c11
-11 20 -27 20 -37 0 -9 -1 -14 -2 -12 -2 2 -16 19 -32 37 -32 34 -19 45 14 12z
m-635 -24 c-37 -16 -135 -28 -135 -17 0 11 81 28 130 29 l35 0 -30 -12z m-172
-6 c16 0 18 -3 9 -9 -17 -10 -62 -2 -62 11 0 6 7 7 16 4 9 -3 25 -6 37 -6z
m-623 -47 c0 -34 -1 -36 -16 -21 -13 12 -14 20 -5 37 16 30 21 26 21 -16z
m210 2 c-7 -9 -15 -13 -17 -11 -7 7 7 26 19 26 6 0 6 -6 -2 -15z m414 3 c-3
-4 0 -8 6 -8 6 0 8 -4 5 -10 -9 -15 2 -12 30 6 17 11 25 12 25 5 0 -7 4 -10 9
-7 5 3 14 -1 21 -10 10 -12 15 -12 21 -2 15 24 22 -1 9 -32 -8 -19 -18 -29
-26 -26 -8 3 -14 0 -14 -6 0 -7 -4 -7 -13 1 -10 8 -17 7 -26 -2 -7 -6 -12 -7
-11 -2 4 21 -1 29 -9 16 -7 -11 -15 -11 -45 -1 -33 10 -50 30 -26 30 5 0 7 13
5 30 -3 26 -1 29 20 28 13 -1 21 -6 19 -10z m266 -13 c0 -11 -88 -93 -94 -88
-3 4 -6 2 -6 -4 0 -6 -14 -16 -31 -22 -40 -14 -99 -14 -99 -1 0 6 14 10 31 10
39 0 109 34 157 77 39 34 42 36 42 28z m-1085 -35 c43 -34 57 -38 48 -12 -7
16 -6 16 11 0 9 -10 20 -18 24 -19 41 -4 60 -14 49 -26 -4 -3 -19 0 -34 8 -45
22 -46 22 -39 10 4 -6 24 -20 44 -31 24 -12 31 -19 19 -20 -11 0 -55 27 -99
60 -45 33 -76 60 -71 60 6 0 27 -13 48 -30z m-199 -2 c4 -6 3 -8 -4 -4 -7 4
-10 -1 -9 -14 2 -25 17 -26 44 0 19 17 22 18 28 2 3 -9 1 -18 -4 -20 -6 -2 -9
-7 -7 -11 2 -3 -12 -7 -32 -7 -35 -1 -37 0 -39 32 -2 34 9 45 23 22z m94 -39
c0 -11 -4 -19 -9 -19 -5 0 -7 9 -4 20 3 11 0 20 -6 20 -6 0 -11 5 -11 11 0 8
5 8 15 -1 8 -7 15 -21 15 -31z m213 34 c-7 -2 -19 -2 -25 0 -7 3 -2 5 12 5 14
0 19 -2 13 -5z m82 -4 c4 -5 -1 -20 -12 -31 -16 -20 -17 -21 0 -15 12 5 17 1
17 -14 0 -17 -3 -18 -20 -9 -21 11 -28 50 -9 50 6 0 9 7 5 15 -6 17 9 21 19 4z
m388 0 c29 -8 42 -7 53 2 16 13 16 13 32 -16 11 -19 11 -19 12 3 0 28 22 29
58 2 15 -11 38 -22 50 -25 49 -9 64 -17 54 -27 -12 -12 -75 6 -92 28 -16 19
-44 18 -61 -2 -11 -14 -14 -13 -24 6 -11 21 -12 21 -39 -14 -17 -23 -35 -36
-49 -36 l-22 1 24 20 c27 22 25 26 -27 50 -42 20 -26 24 31 8z m-195 -130 c16
-11 45 -20 65 -21 22 -2 37 -8 37 -15 0 -17 -43 -16 -83 1 -38 16 -127 108
-127 132 0 10 15 -2 39 -32 22 -26 53 -55 69 -65z m-548 56 c0 -8 1 -18 3 -22
1 -3 -8 -7 -20 -8 -12 -1 -19 3 -16 8 4 6 0 8 -10 4 -12 -4 -17 -1 -17 9 0 10
6 14 15 10 8 -3 15 -1 15 4 0 6 7 10 15 10 8 0 15 -7 15 -15z m57 -32 c-8 -19
-8 -26 2 -32 10 -7 9 -11 -4 -22 -9 -8 -21 -19 -28 -25 -13 -12 -47 -7 -47 8
0 5 -4 7 -8 4 -4 -2 -14 0 -22 5 -13 8 -13 10 0 19 8 5 11 10 5 10 -5 0 -4 4
3 9 8 4 27 7 43 5 18 -2 30 1 31 9 0 6 2 17 2 22 1 6 5 16 10 24 14 23 26 -9
13 -36z m844 9 c5 -12 7 -22 4 -22 -8 0 -35 32 -35 42 0 17 23 3 31 -20z m75
12 c13 -3 24 -11 24 -16 0 -6 -9 -8 -19 -5 -14 3 -18 1 -14 -9 3 -8 11 -14 19
-14 8 0 14 -4 14 -10 0 -14 -12 -12 -40 7 -30 20 -40 33 -40 52 0 8 6 11 16 7
9 -3 27 -9 40 -12z m263 12 c-12 -10 -60 -16 -54 -6 3 5 18 10 32 10 15 0 24
-2 22 -4z m88 -2 c-3 -3 -12 -4 -19 -1 -8 3 -5 6 6 6 11 1 17 -2 13 -5z m269
-7 c3 -2 2 -11 -1 -18 -4 -10 -19 -14 -48 -13 -23 1 -30 0 -14 -3 15 -2 27 -9
27 -14 0 -12 -67 -12 -75 1 -11 17 -23 1 -18 -23 4 -21 4 -21 -9 -2 -7 11 -22
20 -33 20 -14 0 -21 8 -23 27 -3 25 -1 27 45 31 53 4 142 1 149 -6z m-1150
-32 c105 -31 163 -111 164 -224 0 -50 -6 -74 -27 -113 -27 -49 -90 -98 -126
-98 -23 0 -21 -17 3 -25 24 -8 53 -48 102 -140 21 -38 38 -66 38 -61 0 5 10 0
23 -11 12 -12 31 -23 41 -25 11 -1 21 -9 24 -16 6 -20 -50 -3 -72 22 -15 18
-15 15 2 -14 25 -41 52 -61 59 -42 8 22 35 14 31 -10 -3 -20 -10 -23 -51 -26
-44 -3 -51 0 -80 31 -18 18 -54 74 -81 123 -56 102 -115 184 -131 184 -12 0
-12 -151 0 -197 5 -22 3 -23 -57 -23 -48 0 -59 3 -50 12 17 17 17 639 0 656
-18 18 126 16 188 -3z m471 -21 c44 -21 73 -28 120 -29 37 0 62 -4 60 -10 -2
-5 -27 -10 -55 -10 -62 0 -65 -19 -4 -23 31 -2 40 -7 35 -18 -6 -17 -34 -19
-50 -3 -9 9 -10 7 -6 -10 3 -12 13 -21 24 -21 11 0 19 -5 19 -11 0 -6 -6 -9
-13 -6 -10 4 -13 -11 -13 -62 -1 -95 -34 -154 -109 -194 -33 -18 -29 -22 8 -8
21 8 26 6 38 -17 7 -15 13 -31 14 -37 0 -5 7 -9 14 -7 8 2 21 -4 31 -13 9 -8
19 -13 21 -10 3 2 5 -5 6 -16 2 -16 -1 -18 -12 -9 -10 8 -15 8 -21 -1 -4 -7
-3 -9 4 -5 6 3 14 2 17 -4 5 -8 11 -7 21 1 11 9 14 8 14 -4 0 -8 -11 -17 -25
-19 -13 -3 -22 -1 -19 3 3 5 -2 9 -11 9 -9 0 -13 -5 -9 -11 4 -7 1 -10 -7 -7
-8 3 -13 12 -13 21 1 9 -2 15 -6 12 -4 -2 -31 20 -60 51 -29 30 -55 53 -58 49
-6 -5 17 -31 167 -186 35 -37 61 -71 57 -77 -5 -9 -247 227 -254 248 -2 6 -17
10 -34 10 l-30 0 4 -110 3 -110 -53 0 c-50 0 -53 1 -46 22 9 29 8 609 -1 638
-7 23 -7 23 84 18 72 -4 102 -11 148 -34z m473 19 c0 -10 -7 -31 -15 -47 -8
-15 -12 -33 -8 -39 3 -5 2 -7 -4 -4 -12 7 -43 -55 -43 -85 0 -21 1 -21 13 -3
10 13 16 15 21 6 17 -26 -2 -40 -51 -39 -26 1 -40 3 -30 6 10 2 16 10 13 17
-2 7 2 42 11 78 9 36 13 72 10 81 -9 24 -40 19 -68 -10 -13 -14 -17 -23 -8
-19 10 4 15 -1 15 -14 0 -15 -3 -17 -13 -9 -17 14 -17 13 -37 -47 -49 -153
-35 -353 32 -450 23 -33 35 -41 65 -43 33 -3 37 0 38 20 2 45 -2 153 -7 171
-5 14 2 17 43 17 l48 0 0 -118 0 -117 -52 -9 c-159 -27 -256 58 -284 247 -25
170 45 369 145 413 17 7 61 13 99 14 57 0 67 -3 67 -17z m-1166 -43 c-6 -6
-10 -2 -11 12 -2 16 1 18 10 9 7 -7 8 -14 1 -21z m1517 13 c11 -15 11 -16 -1
-6 -11 10 -17 10 -29 0 -14 -11 -14 -10 -2 6 7 9 15 17 16 17 1 0 9 -8 16 -17z
m-1591 -7 c-4 -4 -16 -4 -26 2 -16 9 -14 10 8 9 15 -1 23 -6 18 -11z m-458
-36 c5 0 14 -5 21 -10 7 -6 23 -19 36 -30 13 -11 20 -20 15 -20 -5 0 -10 -12
-11 -26 -1 -25 1 -26 34 -21 28 5 32 3 24 -7 -14 -17 -2 -29 15 -15 7 6 10 17
7 25 -3 8 0 14 6 14 6 0 11 -6 11 -12 0 -7 7 -2 16 10 8 12 20 20 25 16 6 -3
3 -12 -8 -20 -21 -16 -10 -18 35 -5 18 5 32 6 32 1 0 -11 -20 -24 -40 -26 -36
-3 -79 -17 -75 -24 3 -4 -7 -11 -21 -14 -21 -6 -24 -9 -14 -21 10 -12 9 -15
-3 -15 -16 0 -17 -16 -3 -39 6 -10 5 -12 -2 -7 -21 12 -13 -12 10 -34 15 -14
18 -20 7 -20 -12 0 -12 -2 1 -10 13 -8 12 -10 -3 -10 -10 0 -15 -4 -12 -10 3
-5 14 -10 24 -10 14 0 17 6 13 28 -3 15 -9 30 -15 33 -5 4 -6 12 -3 18 12 19
21 12 23 -19 1 -16 9 -41 18 -54 17 -25 12 -52 -6 -41 -5 4 -9 1 -9 -5 0 -7 6
-10 14 -7 8 3 17 3 19 -1 2 -4 2 -1 0 7 -3 12 -1 12 13 0 15 -12 15 -14 0 -25
-15 -10 -15 -12 -1 -18 9 -3 18 1 22 9 4 11 9 13 18 5 6 -5 15 -7 18 -3 10 9
9 25 -1 19 -5 -3 -9 1 -9 8 0 21 20 9 45 -27 26 -38 29 -62 7 -53 -8 3 -15 0
-15 -7 0 -9 -2 -9 -9 1 -6 10 -10 10 -20 -2 -9 -10 -9 -16 -1 -21 8 -5 5 -12
-7 -22 -16 -13 -16 -13 5 -3 13 6 25 17 28 25 3 7 14 15 25 18 20 5 20 5 -1
-30 -16 -28 -18 -38 -8 -44 7 -4 18 -3 25 3 10 8 13 4 13 -20 0 -17 -5 -34
-10 -37 -6 -4 -7 -12 -3 -18 4 -7 8 -16 8 -21 0 -5 8 -10 18 -12 9 -1 17 4 17
12 0 8 5 14 11 14 6 0 9 -7 5 -15 -3 -9 8 -24 29 -41 19 -14 33 -30 30 -34 -3
-5 -1 -11 4 -15 5 -3 15 3 21 12 7 13 10 14 8 3 -3 -18 32 -80 45 -80 5 0 3
10 -6 23 -14 21 -13 23 6 25 16 1 18 -1 8 -7 -10 -7 -6 -15 18 -36 17 -15 28
-32 25 -36 -3 -5 0 -9 6 -9 6 0 8 -6 5 -12 -4 -7 1 -4 9 6 13 16 13 22 3 28
-8 5 -9 8 0 8 6 0 19 3 28 7 16 6 16 4 2 -18 -8 -13 -14 -34 -13 -46 2 -18 0
-20 -11 -12 -9 8 -13 8 -13 1 0 -16 36 -33 54 -26 14 6 21 -5 17 -28 0 -5 12
-8 28 -8 16 0 31 -6 34 -14 15 -39 -141 41 -271 138 -147 112 -248 226 -330
376 -61 112 -86 181 -70 193 10 6 9 8 -4 4 -19 -7 -33 19 -14 26 17 7 27 45
14 54 -7 3 -8 1 -4 -5 4 -7 2 -12 -4 -12 -6 0 -8 -5 -4 -11 4 -7 1 -10 -7 -7
-16 5 -47 140 -47 203 -1 36 0 38 10 18 6 -13 15 -23 20 -23z m259 -27 c-9
-16 -10 -15 -9 9 2 16 6 24 11 19 5 -5 5 -17 -2 -28z m1477 26 c10 6 35 7 80
2 6 0 12 -5 12 -10 0 -5 -31 -9 -70 -10 -56 0 -70 3 -70 15 0 11 4 12 18 5 10
-5 23 -6 30 -2z m122 -9 c0 -5 -4 -10 -10 -10 -5 0 -10 5 -10 10 0 6 5 10 10
10 6 0 10 -4 10 -10z m-1545 -39 c-3 -6 -11 -8 -17 -5 -6 4 -5 9 3 15 16 10
23 4 14 -10z m65 -41 c0 -5 -7 -10 -15 -10 -8 0 -15 5 -15 10 0 6 7 10 15 10
8 0 15 -4 15 -10z m580 -47 c-1 -54 -2 -57 -16 -38 -8 11 -13 29 -10 40 3 11
6 28 6 38 0 9 5 17 10 17 6 0 10 -26 10 -57z m841 30 c-12 -20 -14 -14 -5 12
4 9 9 14 11 11 3 -2 0 -13 -6 -23z m-1324 1 c-3 -3 -12 -4 -19 -1 -8 3 -5 6 6
6 11 1 17 -2 13 -5z m1253 -24 c0 -11 -2 -20 -4 -20 -2 0 -6 9 -9 20 -3 11 -1
20 4 20 5 0 9 -9 9 -20z m-25 -10 c3 -6 -1 -7 -9 -4 -18 7 -21 14 -7 14 6 0
13 -4 16 -10z m-1342 -44 c5 -8 10 -6 17 5 5 9 19 15 32 13 13 -1 48 -3 78 -5
l55 -2 -49 -7 c-28 -3 -52 -12 -54 -18 -5 -17 -32 -15 -38 3 -4 8 -10 12 -15
9 -5 -3 -7 -10 -4 -15 7 -10 5 -11 -41 -14 -25 -3 -34 2 -48 27 l-18 29 39 -7
c21 -4 41 -12 46 -18z m1344 -33 c-3 -10 -5 -2 -5 17 0 19 2 27 5 18 2 -10 2
-26 0 -35z m-1249 -18 c3 -3 -2 -5 -11 -5 -10 0 -17 -8 -17 -20 0 -22 -1 -23
-23 -14 -9 3 -12 14 -9 29 3 20 9 24 29 20 14 -2 28 -7 31 -10z m-75 -7 c-4
-7 -8 -20 -9 -28 -4 -58 -3 -56 -18 -35 -8 11 -11 25 -9 33 4 9 0 12 -12 10
-10 -2 -20 3 -23 11 -3 10 0 12 12 8 10 -4 15 -3 11 3 -4 6 7 10 25 10 23 0
29 -3 23 -12z m157 -13 c0 -18 -5 -25 -20 -25 -11 0 -20 -5 -20 -11 0 -6 9 -9
19 -6 16 4 19 0 18 -27 -2 -26 -7 -32 -28 -34 -26 -3 -26 -2 -23 49 1 37 8 57
20 66 26 19 34 16 34 -12z m394 -4 c3 -5 2 -22 -3 -37 -21 -67 -22 -83 -2
-103 10 -10 22 -34 26 -52 l8 -34 -20 24 c-20 25 -21 25 -49 6 l-29 -18 19 21
c11 12 14 22 9 22 -6 0 -16 -7 -23 -15 -17 -20 -23 -19 -39 6 -11 19 -10 28
10 70 17 37 25 46 35 38 9 -8 11 -5 7 9 -2 11 3 32 12 46 18 27 30 32 39 17z
m21 -97 c-9 -53 -29 -42 -21 12 3 25 9 51 13 57 11 17 16 -28 8 -69z m-525 40
c0 -8 -5 -14 -10 -14 -6 0 -2 -9 8 -20 13 -14 34 -21 66 -23 41 -2 46 -5 46
-26 0 -19 -4 -23 -25 -19 -14 3 -22 1 -19 -4 4 -6 -6 -8 -22 -6 -15 1 -29 -2
-31 -8 -5 -14 70 -25 75 -12 8 19 22 6 22 -22 0 -16 -4 -30 -10 -30 -5 0 -10
7 -10 15 0 13 -4 14 -20 5 -11 -6 -31 -8 -45 -6 -13 3 -27 0 -30 -5 -12 -19
-73 -10 -89 13 -9 12 -13 24 -10 27 3 3 9 -1 14 -9 8 -12 10 -12 16 3 3 9 10
17 16 17 5 0 7 -4 4 -9 -3 -4 6 -6 19 -3 30 5 33 22 5 22 -18 0 -25 11 -21 34
1 5 -5 6 -12 3 -11 -4 -13 0 -9 15 3 13 7 16 12 8 9 -15 42 -9 48 8 2 6 -3 12
-12 12 -10 0 -14 8 -12 28 5 34 3 32 21 26 8 -4 15 -12 15 -20z m-220 -34 c0
-5 -5 -10 -11 -10 -5 0 -7 5 -4 10 3 6 8 10 11 10 2 0 4 -4 4 -10z m54 -6 c5
-14 4 -15 -9 -4 -17 14 -19 20 -6 20 5 0 12 -7 15 -16z m1745 -40 c-8 -10 -21
-11 -47 -5 -2 1 0 6 3 11 5 8 12 7 23 -2 14 -12 14 -10 3 10 -11 21 -11 22 8
10 14 -8 17 -16 10 -24z m-869 -19 c19 -19 32 -35 29 -35 -3 0 -20 16 -39 35
-19 19 -32 35 -29 35 3 0 20 -16 39 -35z m890 -36 c0 -6 -4 -7 -10 -4 -5 3
-10 11 -10 16 0 6 5 7 10 4 6 -3 10 -11 10 -16z m-876 -39 c37 -39 44 -50 29
-50 -29 0 -83 49 -83 76 0 13 1 24 3 24 2 0 25 -22 51 -50z m-884 0 c0 -5 -2
-10 -4 -10 -3 0 -8 5 -11 10 -3 6 -1 10 4 10 6 0 11 -4 11 -10z m1125 -35 c-2
-29 -10 -39 -24 -30 -7 4 -5 14 5 31 20 30 20 30 19 -1z m-975 -6 c0 -5 6 -9
13 -9 7 0 18 -9 25 -20 10 -17 10 -20 -6 -20 -10 0 -29 11 -42 25 -12 13 -27
22 -31 19 -5 -3 -9 -1 -9 5 0 5 6 11 13 14 16 5 37 -3 37 -14z m804 -27 c2 -4
-7 -9 -22 -10 -21 -1 -24 0 -12 8 18 12 27 12 34 2z m-857 -44 c-3 -8 -6 -5
-6 6 -1 11 2 17 5 13 3 -3 4 -12 1 -19z m914 -15 c22 -25 22 -26 2 -9 -23 19
-23 19 -25 0 0 -10 -2 -24 -2 -31 -1 -7 -6 -17 -12 -23 -9 -9 -9 0 -3 32 4 24
8 46 9 51 0 12 5 9 31 -20z m-166 9 c6 -4 15 -14 20 -23 6 -9 18 -28 28 -42
18 -26 18 -27 -7 -82 -13 -30 -22 -55 -18 -55 4 0 3 -4 -3 -8 -16 -11 -36 -52
-26 -52 14 0 55 -86 48 -103 -8 -21 -27 -22 -27 -1 0 8 -5 12 -10 9 -6 -4 -8
-11 -5 -16 4 -5 1 -9 -4 -9 -6 0 -11 8 -11 18 0 14 -2 15 -10 2 -7 -11 -10
-11 -10 -2 0 7 -4 11 -9 8 -4 -3 -16 2 -24 12 -13 14 -15 25 -7 53 6 19 9 80
7 135 -1 79 2 106 16 132 17 32 32 39 52 24z m-705 -32 c0 -5 -2 -10 -4 -10
-3 0 -8 5 -11 10 -3 6 -1 10 4 10 6 0 11 -4 11 -10z m1069 -39 c31 -26 86 -65
124 -87 37 -21 67 -44 67 -51 0 -13 -39 -53 -51 -53 -4 0 -16 -3 -26 -6 -16
-6 -16 -5 1 8 23 18 31 49 10 41 -8 -3 -12 -9 -9 -13 3 -5 1 -12 -5 -15 -6 -4
-10 -3 -9 2 1 4 0 10 -1 13 -1 3 -3 13 -5 23 -3 14 0 16 10 7 10 -8 15 -8 21
1 4 8 3 9 -5 5 -6 -4 -14 0 -17 9 -9 23 -41 38 -50 23 -4 -7 -3 -8 4 -4 18 11
14 0 -5 -15 -11 -10 -14 -10 -9 -1 4 7 2 12 -6 13 -10 0 -10 2 0 6 6 2 12 9
12 14 0 5 -10 4 -22 -2 -22 -12 -22 -11 -8 6 14 17 13 18 -4 12 -16 -6 -17 -5
-6 8 11 13 10 14 -6 9 -10 -4 -16 -4 -12 1 4 4 -4 19 -18 32 -14 12 -21 23
-17 23 4 0 0 5 -9 11 -17 10 -25 29 -12 29 4 0 32 -22 63 -49z m-1064 9 c3 -5
2 -10 -4 -10 -5 0 -13 5 -16 10 -3 6 -2 10 4 10 5 0 13 -4 16 -10z m375 -56
c0 -12 6 -16 26 -13 4 0 10 -5 15 -12 7 -12 25 -19 57 -21 6 -1 12 -5 12 -9 0
-19 -77 6 -102 33 -27 28 -38 55 -18 43 6 -3 10 -13 10 -21z m145 -44 c3 -5
-1 -10 -10 -10 -9 0 -13 5 -10 10 3 6 8 10 10 10 2 0 7 -4 10 -10z m393 -17
c10 -10 31 -19 47 -20 15 -1 31 -6 34 -10 3 -4 11 -8 16 -9 71 -3 118 -39 144
-107 6 -15 17 -27 26 -27 21 0 19 -17 -2 -22 -20 -5 -77 25 -66 35 3 4 -3 7
-15 7 -26 0 -28 16 -6 50 14 22 13 22 -8 -2 -16 -19 -27 -25 -38 -18 -8 5 -18
6 -24 3 -5 -4 -7 1 -3 11 4 10 7 23 8 29 0 7 4 3 8 -7 7 -19 8 -19 13 2 4 12
2 20 -3 16 -5 -3 -9 -1 -9 4 0 5 -7 9 -15 9 -9 0 -15 -7 -14 -16 3 -31 -1 -42
-12 -35 -6 3 -8 18 -5 33 5 25 4 24 -9 -4 -10 -20 -14 -24 -15 -12 0 10 5 27
10 38 6 11 7 19 1 19 -5 0 -12 -12 -16 -27 -4 -16 -10 -22 -12 -15 -4 10 -9 8
-20 -5 -8 -10 -11 -11 -7 -3 4 8 16 25 27 38 18 19 18 22 4 22 -9 0 -17 -6
-17 -12 0 -10 -3 -9 -9 1 -6 10 -11 4 -16 -20 -6 -27 -9 -30 -14 -16 -4 10
-11 18 -16 17 -5 -1 -11 4 -13 12 -2 9 0 8 7 -2 9 -13 11 -12 11 5 0 15 3 17
9 7 7 -11 10 -10 15 3 3 9 6 18 6 20 0 5 -24 0 -37 -8 -7 -5 -9 -1 -6 13 7 25
18 25 41 3z m233 -6 c-6 -8 -7 -18 -3 -22 4 -5 1 -5 -6 -1 -10 6 -10 11 -1 22
6 8 14 14 16 14 3 0 0 -6 -6 -13z m-871 -29 c0 7 5 10 10 7 6 -4 7 -11 4 -17
-4 -6 3 -5 16 2 19 10 21 9 20 -7 -6 -51 9 -58 29 -12 16 37 24 33 12 -7 -10
-35 -4 -54 15 -54 8 0 14 -7 14 -16 0 -8 5 -12 10 -9 7 4 7 13 0 26 -9 16 -7
21 14 31 20 8 29 8 41 -2 8 -7 13 -15 10 -19 -5 -9 31 -41 46 -41 5 0 7 -4 4
-10 -3 -5 2 -10 12 -10 15 0 16 -2 3 -10 -12 -8 -11 -10 8 -10 26 0 27 3 6 24
-22 22 -2 20 24 -3 12 -10 22 -28 22 -39 0 -11 5 -24 12 -28 7 -4 8 -3 4 4 -4
7 -2 12 3 12 6 0 11 -5 11 -11 0 -8 5 -8 15 1 8 7 12 17 8 24 -3 6 3 2 14 -9
11 -11 18 -26 15 -32 -2 -7 3 -13 13 -13 9 0 19 9 22 20 6 23 23 27 23 5 0 -8
8 -15 18 -14 10 0 12 3 5 6 -7 2 -13 8 -13 13 0 12 33 18 55 9 17 -6 17 -8 3
-8 -10 -1 -18 -5 -18 -11 0 -16 18 -11 39 11 19 21 19 21 25 1 4 -11 13 -19
21 -18 25 4 27 14 6 21 -12 3 -21 12 -21 20 0 19 40 7 67 -20 29 -31 20 -34
-116 -42 -110 -6 -236 6 -345 34 -53 13 -68 23 -128 85 -47 47 -71 80 -74 101
-4 25 -3 28 5 17 8 -11 11 -12 11 -2z m567 -22 c20 -17 22 -53 2 -40 -5 3 -9
1 -9 -5 0 -6 -8 -8 -17 -5 -15 5 -15 3 2 -11 19 -16 19 -16 -10 -13 -18 2 -29
8 -27 16 1 7 -4 23 -13 34 -29 42 28 61 72 24z m445 -37 c7 -19 15 -28 24 -25
25 10 15 -3 -16 -19 -35 -18 -59 -20 -43 -4 6 6 9 18 6 25 -3 8 0 14 6 14 6 0
11 5 11 11 0 6 -9 8 -22 4 -23 -7 -23 -7 -3 9 26 20 24 21 37 -15z m-758 -24
c3 -8 1 -15 -3 -15 -5 0 -11 7 -15 15 -3 8 -1 15 3 15 5 0 11 -7 15 -15z m456
-125 c0 -5 -7 -10 -16 -10 -8 0 -12 5 -9 10 3 6 10 10 16 10 5 0 9 -4 9 -10z"/>
<path d="M1941 2671 c-8 -6 -9 -11 -3 -15 6 -3 14 -1 17 5 9 14 2 20 -14 10z"/>
<path d="M1966 2613 c-6 -14 -5 -15 5 -6 7 7 10 15 7 18 -3 3 -9 -2 -12 -12z"/>
<path d="M1794 2475 c-7 -19 -14 -39 -14 -45 0 -6 -4 -8 -10 -5 -5 3 -10 2
-10 -3 0 -13 74 -79 98 -86 23 -8 42 16 42 54 0 30 -57 101 -76 93 -10 -4 -12
0 -8 11 12 32 -7 15 -22 -19z"/>
<path d="M1860 2490 c0 -5 7 -7 15 -4 8 4 15 8 15 10 0 2 -7 4 -15 4 -8 0 -15
-4 -15 -10z"/>
<path d="M1766 2475 c-3 -8 -1 -15 4 -15 6 0 10 7 10 15 0 8 -2 15 -4 15 -2 0
-6 -7 -10 -15z"/>
<path d="M1650 2391 c0 -5 5 -13 10 -16 6 -3 10 -2 10 4 0 5 -4 13 -10 16 -5
3 -10 2 -10 -4z"/>
<path d="M1780 2337 c0 -8 7 -18 16 -21 11 -4 14 -1 12 11 -4 21 -28 30 -28
10z"/>
<path d="M1770 2306 c0 -2 7 -7 16 -10 8 -3 12 -2 9 4 -6 10 -25 14 -25 6z"/>
<path d="M1835 2300 c-3 -5 1 -10 9 -10 9 0 16 5 16 10 0 6 -4 10 -9 10 -6 0
-13 -4 -16 -10z"/>
<path d="M1650 2100 c0 -218 -2 -212 57 -189 34 12 80 55 98 89 34 67 24 176
-22 231 -31 37 -106 79 -88 49 3 -5 2 -10 -3 -10 -6 0 -12 7 -16 15 -3 8 -10
15 -16 15 -6 0 -10 -69 -10 -200z m25 129 c-4 -5 1 -20 12 -31 18 -21 18 -21
-4 -7 -23 14 -29 30 -16 42 10 11 15 8 8 -4z m11 -66 c-7 -7 -26 7 -26 19 0 6
6 6 15 -2 9 -7 13 -15 11 -17z m15 -31 c-7 -2 -18 1 -23 6 -8 8 -4 9 13 5 13
-4 18 -8 10 -11z m-9 -24 c-9 -9 -15 -9 -24 0 -9 9 -7 12 12 12 19 0 21 -3 12
-12z m-2 -34 c0 -2 -7 -4 -15 -4 -8 0 -15 4 -15 10 0 5 7 7 15 4 8 -4 15 -8
15 -10z m70 -49 c0 -8 -4 -15 -9 -15 -5 0 -23 -3 -41 -7 -25 -4 -31 -3 -26 6
17 27 76 39 76 16z m-77 -46 c5 -3 2 -9 -5 -12 -9 -3 -14 3 -15 15 -1 11 1 16
5 12 4 -5 11 -12 15 -15z"/>
<path d="M1040 2100 c0 -198 0 -200 22 -200 12 0 40 11 64 25 53 31 94 107 94
175 0 87 -71 180 -147 194 l-33 6 0 -200z m63 154 c-7 -18 -10 -18 -22 5 -9
16 -8 18 8 14 12 -3 17 -11 14 -19z m-23 -38 c0 -2 -7 -7 -16 -10 -8 -3 -12
-2 -9 4 6 10 25 14 25 6z m93 -152 c-3 -8 -24 -19 -47 -24 -22 -6 -49 -13 -58
-16 -10 -3 -18 -1 -18 5 0 6 5 11 11 11 5 0 8 4 4 9 -3 5 0 13 6 17 8 4 9 3 5
-4 -9 -15 -7 -15 33 -1 17 6 31 15 31 19 0 4 9 6 19 3 12 -3 17 -11 14 -19z
m-83 -94 c0 -16 -4 -30 -10 -30 -11 0 -14 43 -3 53 11 12 13 8 13 -23z m-33
-32 c-3 -8 -6 -5 -6 6 -1 11 2 17 5 13 3 -3 4 -12 1 -19z"/>
<path d="M2437 2003 c-26 -109 -47 -201 -47 -206 0 -4 11 0 25 9 13 9 51 24
82 34 32 10 57 22 56 27 0 4 -14 81 -29 171 -15 89 -30 162 -34 162 -3 0 -27
-89 -53 -197z m53 -13 c0 -5 -5 -10 -11 -10 -5 0 -7 5 -4 10 3 6 8 10 11 10 2
0 4 -4 4 -10z m0 -60 c0 -11 -2 -20 -4 -20 -2 0 -6 9 -9 20 -3 11 -1 20 4 20
5 0 9 -9 9 -20z"/>
<path d="M2520 1550 c-18 -12 -2 -12 25 0 13 6 15 9 5 9 -8 0 -22 -4 -30 -9z"/>
<path d="M2580 1550 c0 -5 5 -10 11 -10 5 0 7 5 4 10 -3 6 -8 10 -11 10 -2 0
-4 -4 -4 -10z"/>
<path d="M2450 1349 c0 -5 5 -7 10 -4 6 3 10 8 10 11 0 2 -4 4 -10 4 -5 0 -10
-5 -10 -11z"/>
<path d="M2405 1320 c-3 -5 -1 -10 4 -10 6 0 11 5 11 10 0 6 -2 10 -4 10 -3 0
-8 -4 -11 -10z"/>
<path d="M2290 1285 c-8 -9 -8 -15 -2 -15 12 0 26 19 19 26 -2 2 -10 -2 -17
-11z"/>
<path d="M2498 1293 c7 -3 16 -2 19 1 4 3 -2 6 -13 5 -11 0 -14 -3 -6 -6z"/>
<path d="M2305 1250 c-3 -6 1 -7 9 -4 18 7 21 14 7 14 -6 0 -13 -4 -16 -10z"/>
<path d="M2340 1239 c0 -5 5 -7 10 -4 6 3 10 8 10 11 0 2 -4 4 -10 4 -5 0 -10
-5 -10 -11z"/>
<path d="M2370 1236 c0 -2 7 -7 16 -10 8 -3 12 -2 9 4 -6 10 -25 14 -25 6z"/>
<path d="M2425 1220 c-3 -5 -1 -10 4 -10 6 0 11 5 11 10 0 6 -2 10 -4 10 -3 0
-8 -4 -11 -10z"/>
<path d="M2401 1000 c0 -8 4 -22 9 -30 12 -18 12 -2 0 25 -6 13 -9 15 -9 5z"/>
<path d="M2350 981 c0 -5 9 -11 21 -14 16 -4 18 -3 8 9 -13 16 -29 19 -29 5z"/>
<path d="M2360 941 c0 -5 5 -13 10 -16 6 -3 10 -2 10 4 0 5 -4 13 -10 16 -5 3
-10 2 -10 -4z"/>
<path d="M2345 910 c-4 -7 0 -19 9 -28 15 -16 16 -15 13 5 -4 29 -13 38 -22
23z"/>
<path d="M2400 861 c0 -5 5 -13 10 -16 6 -3 10 -2 10 4 0 5 -4 13 -10 16 -5 3
-10 2 -10 -4z"/>
<path d="M1780 1630 c0 -5 5 -10 10 -10 6 0 10 5 10 10 0 6 -4 10 -10 10 -5 0
-10 -4 -10 -10z"/>
<path d="M2274 1539 c-3 -5 6 -9 20 -9 31 0 34 6 6 13 -11 3 -23 1 -26 -4z"/>
<path d="M1087 1493 c-4 -3 -7 -11 -7 -17 0 -6 5 -4 10 4 9 13 13 11 31 -9 13
-16 18 -33 15 -46 -4 -15 1 -28 14 -40 11 -10 20 -23 20 -29 0 -6 -10 1 -21
17 -11 15 -25 24 -31 21 -6 -4 -9 9 -8 32 3 54 2 56 -13 43 -9 -9 -12 -58 -11
-188 l1 -176 32 2 c43 2 99 47 122 97 35 78 17 200 -37 248 -19 17 -85 48
-102 48 -5 0 -12 -3 -15 -7z m43 -127 c0 -8 -7 -16 -15 -20 -13 -4 -14 -2 -5
14 13 23 20 26 20 6z m90 -7 c0 -14 -17 -10 -23 5 -4 10 -1 13 9 9 7 -3 14 -9
14 -14z m-6 -107 c-6 -9 -15 -16 -20 -14 -4 2 -11 -5 -15 -15 -7 -16 -8 -16
-8 4 -1 12 5 23 12 26 6 2 9 7 6 11 -4 4 -21 -5 -38 -20 -26 -22 -32 -34 -31
-63 3 -51 1 -58 -10 -41 -15 22 -9 85 10 110 18 24 79 42 95 28 6 -5 6 -15 -1
-26z"/>
<path d="M1510 1300 l0 -202 32 6 c47 9 94 45 120 91 31 54 32 155 3 204 -26
44 -81 87 -122 96 l-33 7 0 -202z m87 158 c11 -13 24 -33 28 -45 9 -33 -16
-30 -55 7 -27 25 -30 33 -20 45 17 20 23 19 47 -7z m1 -130 c40 -31 55 -58 31
-58 -7 0 -9 -10 -5 -25 4 -14 3 -25 -1 -25 -14 0 -41 32 -37 44 3 7 -8 11 -28
11 -32 0 -33 2 -36 43 -3 35 0 42 16 42 10 0 37 -14 60 -32z m-48 -116 c0 -13
2 -14 9 -3 5 7 11 9 14 4 16 -26 -21 -81 -42 -60 -12 12 -15 69 -5 80 10 10
24 -2 24 -21z"/>
<path d="M455 1330 c3 -5 8 -10 11 -10 2 0 4 5 4 10 0 6 -5 10 -11 10 -5 0 -7
-4 -4 -10z"/>
<path d="M460 1290 c8 -5 20 -10 25 -10 6 0 3 5 -5 10 -8 5 -19 10 -25 10 -5
0 -3 -5 5 -10z"/>
<path d="M606 996 c5 -13 4 -17 -4 -12 -7 4 -12 2 -12 -3 0 -14 17 -14 26 0 3
6 1 16 -5 22 -9 9 -10 7 -5 -7z"/>
<path d="M690 999 c0 -5 5 -7 10 -4 6 3 10 8 10 11 0 2 -4 4 -10 4 -5 0 -10
-5 -10 -11z"/>
<path d="M625 941 c-3 -5 0 -13 6 -17 7 -4 9 -3 5 4 -3 5 0 13 6 15 9 4 10 6
1 6 -6 1 -14 -3 -18 -8z"/>
<path d="M660 860 c0 -6 7 -10 15 -10 8 0 15 2 15 4 0 2 -7 6 -15 10 -8 3 -15
1 -15 -4z"/>
<path d="M796 741 c-4 -5 -2 -12 3 -15 5 -4 12 -2 15 3 4 5 2 12 -3 15 -5 4
-12 2 -15 -3z"/>
<path d="M836 695 c4 -8 11 -15 16 -15 6 0 5 6 -2 15 -7 8 -14 15 -16 15 -2 0
-1 -7 2 -15z"/>
<path d="M886 666 c6 -15 4 -17 -7 -11 -12 8 -12 6 0 -9 10 -12 17 -14 25 -6
7 7 5 15 -7 28 -17 16 -18 16 -11 -2z"/>
<path d="M950 636 c0 -2 8 -10 18 -17 15 -13 16 -12 3 4 -13 16 -21 21 -21 13z"/>
<path d="M937 613 c-7 -11 30 -50 38 -41 3 3 -3 16 -13 28 -11 14 -21 19 -25
13z"/>
<path d="M1310 1131 c0 -6 4 -13 10 -16 6 -3 7 1 4 9 -7 18 -14 21 -14 7z"/>
<path d="M1269 1066 c-15 -32 -15 -33 1 -23 10 5 18 21 18 34 0 12 -1 23 -2
23 -1 0 -9 -15 -17 -34z"/>
<path d="M1302 1060 c0 -14 2 -19 5 -12 2 6 2 18 0 25 -3 6 -5 1 -5 -13z"/>
<path d="M1900 569 c0 -5 5 -7 10 -4 6 3 10 8 10 11 0 2 -4 4 -10 4 -5 0 -10
-5 -10 -11z"/>
<path d="M1256 545 c-3 -9 0 -15 8 -15 8 0 16 7 20 15 3 9 0 15 -8 15 -8 0
-16 -7 -20 -15z"/>
<path d="M1720 433 c8 -3 19 -11 23 -17 6 -7 7 -6 4 4 -2 8 -12 16 -23 17 -13
2 -15 1 -4 -4z"/>
<path d="M455 2000 c-16 -7 -17 -9 -3 -9 9 -1 20 4 23 9 7 11 7 11 -20 0z"/>
<path d="M2447 2869 c-21 -16 -31 -18 -46 -10 -29 16 -38 13 -15 -4 26 -20 34
-19 69 10 36 29 29 34 -8 4z"/>
<path d="M2500 2860 c-9 -6 -10 -10 -3 -10 6 0 15 5 18 10 8 12 4 12 -15 0z"/>
<path d="M2360 2820 c8 -5 20 -10 25 -10 6 0 3 5 -5 10 -8 5 -19 10 -25 10 -5
0 -3 -5 5 -10z"/>
<path d="M2420 2778 c-27 -50 -22 -48 14 5 14 20 22 37 18 37 -5 0 -19 -19
-32 -42z"/>
<path d="M2380 2779 c-7 -11 -10 -23 -7 -25 2 -2 9 7 15 21 14 30 7 33 -8 4z"/>
<path d="M2392 2710 c0 -14 2 -19 5 -12 2 6 2 18 0 25 -3 6 -5 1 -5 -13z"/>
<path d="M2580 2641 c0 -5 5 -13 10 -16 6 -3 10 -2 10 4 0 5 -4 13 -10 16 -5
3 -10 2 -10 -4z"/>
<path d="M2810 2450 c0 -5 5 -10 11 -10 5 0 7 5 4 10 -3 6 -8 10 -11 10 -2 0
-4 -4 -4 -10z"/>
<path d="M2845 2450 c-3 -6 1 -7 9 -4 18 7 21 14 7 14 -6 0 -13 -4 -16 -10z"/>
<path d="M2759 2393 c-13 -16 -12 -17 4 -4 16 13 21 21 13 21 -2 0 -10 -8 -17
-17z"/>
<path d="M2830 2400 c-9 -6 -10 -10 -3 -10 6 0 15 5 18 10 8 12 4 12 -15 0z"/>
<path d="M2769 2353 l-24 -28 28 24 c25 23 32 31 24 31 -2 0 -14 -12 -28 -27z"/>
<path d="M2883 2178 c-13 -6 -23 -15 -23 -20 0 -7 31 8 59 29 10 7 -16 1 -36
-9z"/>
<path d="M2730 595 c-8 -9 -8 -15 -2 -15 12 0 26 19 19 26 -2 2 -10 -2 -17
-11z"/>
<path d="M1355 3149 c-17 -53 3 -199 26 -199 5 0 1 17 -7 37 -11 26 -15 60
-12 110 2 40 2 73 1 73 -1 0 -5 -9 -8 -21z"/>
<path d="M1612 3150 c0 -14 2 -19 5 -12 2 6 2 18 0 25 -3 6 -5 1 -5 -13z"/>
<path d="M1566 3145 c-3 -9 -6 -24 -5 -33 0 -9 5 -4 10 12 9 32 6 48 -5 21z"/>
<path d="M1063 3055 c0 -22 2 -30 4 -17 2 12 2 30 0 40 -3 9 -5 -1 -4 -23z"/>
<path d="M1012 3035 c0 -16 2 -22 5 -12 2 9 2 23 0 30 -3 6 -5 -1 -5 -18z"/>
<path d="M1562 3030 c0 -14 2 -19 5 -12 2 6 2 18 0 25 -3 6 -5 1 -5 -13z"/>
<path d="M1268 3013 c7 -3 16 -2 19 1 4 3 -2 6 -13 5 -11 0 -14 -3 -6 -6z"/>
<path d="M1311 2991 c6 -17 17 -35 25 -42 12 -10 12 -7 -1 17 -8 16 -15 35
-15 42 0 6 -4 12 -9 12 -6 0 -6 -11 0 -29z"/>
<path d="M994 2985 c-10 -8 -14 -15 -8 -15 5 0 19 7 30 15 10 8 14 15 8 15 -5
0 -19 -7 -30 -15z"/>
<path d="M1070 2976 c15 -40 43 -86 53 -86 5 0 -1 13 -12 29 -12 16 -21 33
-21 38 0 5 -7 18 -15 29 -14 18 -14 17 -5 -10z"/>
<path d="M1570 2991 c0 -6 4 -13 10 -16 6 -3 7 1 4 9 -7 18 -14 21 -14 7z"/>
<path d="M781 2954 c0 -11 3 -14 6 -6 3 7 2 16 -1 19 -3 4 -6 -2 -5 -13z"/>
<path d="M1010 2945 l-25 -15 27 6 c23 5 29 1 43 -26 9 -18 19 -30 21 -27 4 4
-34 78 -39 77 -1 -1 -13 -7 -27 -15z"/>
<path d="M755 2905 c3 -28 -1 -45 -13 -59 -17 -19 -17 -19 10 -1 15 9 25 22
21 28 -3 6 -10 24 -14 41 -8 28 -8 27 -4 -9z"/>
<path d="M790 2909 c0 -15 57 -109 67 -109 3 0 -3 12 -13 28 -10 15 -26 43
-36 62 -9 19 -17 28 -18 19z"/>
<path d="M800 2813 c0 -5 10 -18 23 -29 l22 -19 -20 25 c-11 14 -21 27 -22 29
-2 2 -3 0 -3 -6z"/>
<path d="M541 2782 c-3 -41 57 -129 104 -154 11 -6 0 9 -25 33 -25 24 -53 64
-62 89 -9 25 -17 39 -17 32z"/>
<path d="M510 2746 c0 -8 4 -17 9 -20 5 -4 7 3 4 14 -6 23 -13 26 -13 6z"/>
<path d="M527 2693 c-4 -3 -7 -11 -7 -17 0 -6 5 -5 12 2 6 6 9 14 7 17 -3 3
-9 2 -12 -2z"/>
<path d="M552 2648 c-17 -17 -15 -33 3 -18 13 10 19 10 35 -5 11 -10 20 -14
20 -8 0 10 -32 43 -41 43 -3 0 -10 -5 -17 -12z"/>
<path d="M320 2531 c0 -5 5 -13 10 -16 6 -3 10 -2 10 4 0 5 -4 13 -10 16 -5 3
-10 2 -10 -4z"/>
<path d="M339 2473 c-13 -16 -12 -17 4 -4 9 7 17 15 17 17 0 8 -8 3 -21 -13z"/>
<path d="M424 2446 c11 -9 24 -16 30 -16 12 0 7 5 -24 19 -24 11 -24 11 -6 -3z"/>
<path d="M191 2294 c32 -34 72 -54 106 -53 24 0 21 2 -14 12 -23 7 -56 24 -72
40 -39 34 -52 35 -20 1z"/>
<path d="M170 2262 c0 -6 5 -14 10 -17 6 -4 8 -16 4 -27 -4 -14 -2 -18 5 -14
16 10 14 41 -4 56 -9 8 -15 9 -15 2z"/>
<path d="M227 2223 c-4 -3 -7 -13 -7 -22 1 -13 3 -13 11 2 11 19 8 33 -4 20z"/>
<path d="M283 2203 c9 -2 25 -2 35 0 9 3 1 5 -18 5 -19 0 -27 -2 -17 -5z"/>
<path d="M76 2039 c6 -11 64 -42 69 -37 2 2 -14 13 -36 25 -21 12 -37 17 -33
12z"/>
<path d="M50 1996 c0 -3 9 -10 20 -16 11 -6 20 -8 20 -6 0 3 -9 10 -20 16 -11
6 -20 8 -20 6z"/>
<path d="M188 1993 c12 -2 30 -2 40 0 9 3 -1 5 -23 4 -22 0 -30 -2 -17 -4z"/>
<path d="M98 1950 c-7 -24 -3 -38 8 -28 3 4 4 17 2 30 l-3 23 -7 -25z"/>
<path d="M3040 1955 c0 -8 4 -15 10 -15 5 0 7 7 4 15 -4 8 -8 15 -10 15 -2 0
-4 -7 -4 -15z"/>
<path d="M144 1948 c-3 -4 15 -8 40 -8 25 0 46 2 46 4 0 8 -82 11 -86 4z"/>
<path d="M2965 1910 c-8 -13 5 -13 25 0 13 8 13 10 -2 10 -9 0 -20 -4 -23 -10z"/>
<path d="M3031 1896 c2 -2 33 -6 69 -9 38 -3 57 -1 45 3 -19 8 -123 14 -114 6z"/>
<path d="M2973 1878 c-13 -6 -23 -15 -23 -19 0 -6 55 15 69 28 10 7 -26 1 -46
-9z"/>
<path d="M16 1721 c5 -5 23 -12 39 -16 30 -6 30 -6 -4 10 -38 17 -49 19 -35 6z"/>
<path d="M90 1700 c0 -6 7 -10 15 -10 8 0 15 2 15 4 0 2 -7 6 -15 10 -8 3 -15
1 -15 -4z"/>
<path d="M17 1678 c12 -6 24 -20 26 -32 4 -17 5 -16 6 5 0 16 -5 29 -15 33
-26 10 -40 5 -17 -6z"/>
<path d="M3092 1670 c0 -14 2 -19 5 -12 2 6 2 18 0 25 -3 6 -5 1 -5 -13z"/>
<path d="M138 1673 c-27 -2 -48 -8 -48 -12 0 -12 79 -6 92 7 7 7 10 11 8 10
-3 -1 -26 -3 -52 -5z"/>
<path d="M3140 1630 c46 -25 64 -25 22 0 -18 11 -38 20 -45 20 -6 -1 4 -9 23
-20z"/>
<path d="M3140 1585 c14 -8 32 -14 40 -14 9 0 4 6 -10 14 -14 8 -32 14 -40 14
-9 0 -4 -6 10 -14z"/>
<path d="M155 1449 c-34 -21 -29 -25 10 -7 14 6 25 15 25 20 0 10 1 10 -35
-13z"/>
<path d="M19 1427 c5 -5 28 -7 52 -5 l44 3 -52 5 c-29 3 -48 1 -44 -3z"/>
<path d="M3031 1398 c0 -9 -8 -21 -17 -26 -10 -6 -12 -12 -6 -16 14 -8 35 20
29 41 -4 16 -5 16 -6 1z"/>
<path d="M3073 1378 c-2 -18 0 -20 7 -8 12 18 13 30 2 30 -4 0 -9 -10 -9 -22z"/>
<path d="M2948 1313 c6 -2 18 -2 25 0 6 3 1 5 -13 5 -14 0 -19 -2 -12 -5z"/>
<path d="M3127 1279 c7 -7 15 -10 18 -7 3 3 -2 9 -12 12 -14 6 -15 5 -6 -5z"/>
<path d="M199 1164 c-20 -14 -58 -29 -85 -33 -47 -8 -48 -9 -11 -10 39 -1 104
26 126 53 19 22 11 20 -30 -10z"/>
<path d="M210 1130 c-14 -11 -20 -20 -15 -19 13 0 50 28 44 33 -2 3 -15 -4
-29 -14z"/>
<path d="M2976 1105 c-9 -26 -7 -32 5 -12 6 10 9 21 6 23 -2 3 -7 -2 -11 -11z"/>
<path d="M2905 1090 c3 -5 14 -10 23 -10 15 0 15 2 2 10 -20 13 -33 13 -25 0z"/>
<path d="M3015 1079 c-4 -6 -5 -12 -2 -15 2 -3 7 2 10 11 7 17 1 20 -8 4z"/>
<path d="M2909 1044 c18 -8 36 -13 39 -10 6 6 -43 26 -61 25 -7 0 3 -7 22 -15z"/>
<path d="M3035 1030 c3 -5 11 -10 16 -10 6 0 7 5 4 10 -3 6 -11 10 -16 10 -6
0 -7 -4 -4 -10z"/>
<path d="M2971 1027 c2 -2 22 -15 44 -31 l40 -27 -35 30 c-19 17 -39 31 -44
31 -5 0 -7 -1 -5 -3z"/>
<path d="M324 868 c-29 -31 -29 -31 -2 -12 15 10 29 25 32 32 8 18 2 15 -30
-20z"/>
<path d="M2851 853 c-8 -15 -14 -16 -40 -6 -17 6 -31 8 -31 3 0 -4 8 -10 18
-13 9 -2 24 -8 33 -11 10 -5 19 1 27 19 13 28 8 34 -7 8z"/>
<path d="M290 826 c0 -2 7 -9 15 -16 13 -11 14 -10 9 4 -5 14 -24 23 -24 12z"/>
<path d="M218 813 c7 -3 16 -2 19 1 4 3 -2 6 -13 5 -11 0 -14 -3 -6 -6z"/>
<path d="M2789 805 c42 -19 52 -19 27 0 -11 8 -29 15 -40 15 -16 -1 -12 -5 13
-15z"/>
<path d="M2840 786 c0 -2 7 -9 15 -16 9 -7 15 -8 15 -2 0 5 -7 12 -15 16 -8 3
-15 4 -15 2z"/>
<path d="M487 628 c-24 -34 -26 -41 -13 -53 20 -21 29 -19 17 4 -8 14 -6 25
10 45 11 14 19 30 17 35 -2 5 -15 -9 -31 -31z"/>
<path d="M2464 442 c27 -29 30 -30 53 -15 13 9 21 18 19 21 -3 3 -12 -1 -21
-8 -13 -10 -19 -10 -33 2 -35 30 -46 30 -18 0z"/>
<path d="M2430 427 c34 -30 56 -66 65 -105 9 -44 18 -34 10 11 -7 37 -68 117
-88 117 -7 0 -1 -11 13 -23z"/>
<path d="M626 371 c-23 -25 -20 -38 4 -16 19 17 21 17 40 0 11 -10 23 -16 26
-13 3 3 -8 15 -24 27 -28 20 -30 20 -46 2z"/>
<path d="M2530 353 c0 -4 5 -15 10 -23 8 -13 10 -13 10 2 0 9 -4 20 -10 23 -5
3 -10 3 -10 -2z"/>
<path d="M895 315 c-4 -16 -21 -50 -37 -73 -16 -24 -23 -42 -17 -40 19 6 71
105 66 125 -3 13 -6 10 -12 -12z"/>
<path d="M2214 288 c16 -21 34 -61 41 -90 10 -41 13 -46 14 -23 1 38 -29 104
-59 130 -20 17 -20 15 4 -17z"/>
<path d="M1164 185 c-6 -33 -14 -69 -18 -80 -7 -19 -7 -19 8 -1 16 20 30 91
24 122 -2 11 -8 -8 -14 -41z"/>
<path d="M880 200 c-14 -27 -12 -37 3 -16 11 15 17 16 35 7 24 -13 32 -14 32
-3 0 4 -14 13 -30 19 -26 10 -32 9 -40 -7z"/>
<path d="M1210 203 c0 -10 -3 -27 -6 -39 -4 -15 1 -23 21 -32 31 -14 35 -15
35 -3 0 5 -11 12 -24 15 -22 5 -24 10 -19 41 3 19 3 35 -1 35 -3 0 -6 -8 -6
-17z"/>
<path d="M1969 187 c12 -20 26 -58 31 -85 7 -42 8 -43 9 -12 1 38 -29 113 -50
126 -7 4 -3 -9 10 -29z"/>
<path d="M2006 197 c3 -10 9 -15 12 -12 3 3 0 11 -7 18 -10 9 -11 8 -5 -6z"/>
<path d="M1470 194 c0 -7 7 -27 15 -45 10 -24 14 -28 14 -14 0 21 -28 78 -29
59z"/>
<path d="M1701 153 c14 -27 19 -53 17 -90 -3 -57 6 -59 15 -3 6 38 -20 121
-40 127 -6 2 -3 -12 8 -34z"/>
<path d="M2045 180 c-3 -5 -2 -10 4 -10 5 0 13 5 16 10 3 6 2 10 -4 10 -5 0
-13 -4 -16 -10z"/>
<path d="M1440 134 c4 -25 5 -57 3 -72 l-3 -27 10 25 c12 26 5 106 -9 114 -4
3 -5 -15 -1 -40z"/>
<path d="M2047 128 c-16 -13 -18 -40 -4 -54 4 -4 7 4 7 17 0 14 5 30 12 37 16
16 6 15 -15 0z"/>
<path d="M1172 89 c-7 -11 -11 -23 -9 -25 7 -7 29 24 25 36 -2 6 -9 1 -16 -11z"/>
<path d="M1490 106 c0 -2 11 -6 25 -8 14 -3 25 -1 25 3 0 5 -11 9 -25 9 -14 0
-25 -2 -25 -4z"/>
<path d="M1210 96 c0 -2 7 -6 15 -10 8 -3 15 -1 15 4 0 6 -7 10 -15 10 -8 0
-15 -2 -15 -4z"/>
<path d="M1477 54 c-4 -4 -7 -17 -7 -28 1 -19 1 -20 11 -3 11 19 8 43 -4 31z"/>
</g>
</svg>
