<svg id="svg" xmlns="http://www.w3.org/2000/svg" xmlns:xlink="http://www.w3.org/1999/xlink" width="400" height="400" viewBox="0, 0, 400,400"><g id="svgg"><path id="path0" d="M52.816 1.501 C 42.230 8.481,48.250 31.761,63.107 41.295 C 69.720 45.538,72.924 46.355,84.813 46.828 L 95.798 47.266 71.727 85.927 C 47.723 124.482,47.656 124.600,47.661 128.896 C 47.672 138.142,51.413 140.613,65.410 140.620 L 75.742 140.625 75.351 142.773 C 68.298 181.518,69.571 186.736,86.265 187.500 L 94.796 187.891 95.876 193.245 C 102.918 228.174,133.472 258.206,179.688 275.624 C 197.633 282.388,200.273 282.584,213.376 278.125 C 262.395 261.442,294.697 231.986,303.330 196.094 C 304.208 192.441,305.038 189.014,305.173 188.477 C 305.350 187.775,307.682 187.499,313.452 187.495 C 330.250 187.484,331.719 181.613,324.649 142.773 L 324.258 140.625 334.081 140.625 C 348.397 140.625,352.344 138.070,352.344 128.801 C 352.344 124.628,352.096 124.187,328.287 85.925 L 304.231 47.266 315.592 46.859 C 337.438 46.076,351.171 34.089,352.201 14.904 C 353.188 -3.488,331.101 -6.826,328.539 11.328 C 327.091 21.588,324.262 22.974,304.086 23.312 L 288.250 23.577 283.529 19.206 C 262.072 -0.659,232.266 -5.706,206.055 6.087 L 200.000 8.811 193.945 6.087 C 182.795 1.070,179.232 0.386,164.453 0.428 C 144.087 0.485,131.277 5.498,116.471 19.206 L 111.750 23.577 95.914 23.312 C 75.738 22.974,72.909 21.588,71.461 11.328 C 70.096 1.657,60.362 -3.473,52.816 1.501 M208.984 47.997 C 246.106 50.816,279.092 85.044,281.059 122.786 C 281.616 133.471,281.707 133.291,269.482 145.699 L 258.594 156.750 258.570 165.289 C 258.505 188.099,252.521 200.300,238.083 207.056 C 226.047 212.688,173.953 212.688,161.917 207.056 C 147.479 200.300,141.495 188.099,141.430 165.289 L 141.406 156.750 130.518 145.699 C 118.224 133.221,118.356 133.487,118.978 122.370 C 121.279 81.308,163.258 43.182,201.563 47.368 C 202.637 47.486,205.977 47.768,208.984 47.997 M185.244 71.867 C 163.314 77.773,146.743 95.424,142.481 117.414 L 141.150 124.281 151.720 134.992 C 165.290 148.742,164.335 146.539,164.825 165.234 C 165.375 186.214,166.251 187.486,180.167 187.495 L 188.068 187.500 188.447 180.269 C 189.014 169.413,192.418 164.844,199.936 164.844 C 207.636 164.844,210.977 169.250,211.548 180.158 L 211.932 187.500 219.833 187.495 C 233.749 187.486,234.625 186.214,235.175 165.234 C 235.664 146.545,234.719 148.733,248.214 135.059 L 258.719 124.414 258.163 120.605 C 253.148 86.227,218.331 62.956,185.244 71.867 M5.189 212.420 C 1.569 214.806,0.011 217.856,0.005 222.564 C -0.005 230.643,3.595 233.758,14.453 235.066 C 38.185 237.924,47.571 251.847,47.632 284.283 C 47.665 301.740,49.010 303.762,61.719 305.455 C 64.941 305.884,68.321 306.443,69.229 306.697 C 70.846 307.148,70.891 306.894,71.440 294.008 C 72.379 271.962,75.840 256.755,83.788 239.747 L 87.296 232.239 83.238 224.127 C 81.006 219.666,78.785 214.873,78.302 213.477 L 77.425 210.938 42.423 210.943 C 9.451 210.947,7.292 211.033,5.189 212.420 M321.698 213.477 C 321.215 214.873,318.994 219.666,316.762 224.127 L 312.704 232.239 316.023 239.362 C 324.080 256.649,327.046 269.178,328.311 291.261 C 329.193 306.681,329.265 307.119,330.821 306.684 C 331.701 306.437,335.059 305.884,338.281 305.455 C 350.990 303.762,352.335 301.740,352.368 284.283 C 352.429 251.799,361.791 237.913,385.547 235.072 C 398.237 233.554,404.233 224.796,398.517 216.126 C 394.991 210.777,396.341 210.948,357.577 210.943 L 322.575 210.938 321.698 213.477 M102.136 252.852 C 97.053 261.360,94.531 278.954,94.531 305.904 L 94.531 329.573 90.199 331.556 C 84.235 334.287,77.494 341.216,74.156 348.047 L 71.484 353.516 71.228 372.656 C 70.834 402.091,67.868 400.000,110.012 400.000 L 141.325 400.000 141.561 368.555 C 141.844 330.810,142.390 328.918,153.004 328.909 C 163.813 328.900,164.407 330.913,164.689 368.555 L 164.925 400.000 200.000 400.000 L 235.075 400.000 235.311 368.555 C 235.525 340.030,235.677 336.870,236.952 334.536 C 241.051 327.028,252.122 327.017,256.641 334.516 C 258.123 336.976,258.215 338.724,258.439 368.555 L 258.675 400.000 289.988 400.000 C 332.132 400.000,329.166 402.091,328.772 372.656 L 328.516 353.516 325.844 348.047 C 322.556 341.319,316.129 334.701,309.961 331.694 L 305.469 329.504 305.469 305.870 C 305.469 278.956,302.944 261.356,297.864 252.852 C 297.646 252.487,295.489 254.108,293.070 256.453 C 270.361 278.474,219.746 304.688,199.936 304.688 C 180.384 304.688,129.409 278.251,106.930 256.453 C 104.511 254.108,102.354 252.487,102.136 252.852 " stroke="none" fill="#000000" fill-rule="evenodd"></path></g></svg>