<svg id="svg" xmlns="http://www.w3.org/2000/svg" xmlns:xlink="http://www.w3.org/1999/xlink" width="400" height="342.6731078904992" viewBox="0, 0, 400,342.6731078904992"><g id="svgg"><path id="path0" d="M65.708 0.483 C 65.749 2.996,76.935 17.432,86.914 27.851 C 99.469 40.958,110.696 49.209,127.300 57.532 C 144.953 66.381,152.013 75.231,152.013 88.511 L 152.013 93.327 148.309 91.673 C 112.318 75.605,72.457 72.417,32.850 82.438 C 26.030 84.163,9.299 89.595,7.219 90.759 C 6.730 91.033,15.558 91.453,26.837 91.694 C 79.197 92.810,100.590 96.963,118.841 109.554 C 124.710 113.604,130.527 119.415,128.180 118.885 C 100.301 112.586,53.231 119.824,28.883 134.154 C 16.273 141.575,-5.371 160.826,1.127 158.841 C 52.808 143.051,86.580 140.935,114.493 151.739 C 121.631 154.502,121.570 154.214,115.788 157.782 C 85.229 176.637,60.637 208.465,42.459 252.689 C 38.148 263.176,38.431 263.124,47.663 251.745 C 67.611 227.157,84.450 213.589,102.652 207.436 L 107.914 205.658 106.818 212.169 C 104.564 225.553,104.025 234.980,104.055 260.548 C 104.082 283.931,104.336 289.428,106.364 310.490 L 107.079 317.920 114.419 319.052 C 133.173 321.945,148.716 328.923,164.379 341.481 L 166.117 342.875 170.683 337.986 C 179.632 328.403,191.587 323.027,206.954 321.676 C 210.130 321.396,211.905 320.972,211.785 320.520 C 211.680 320.128,204.364 305.604,195.527 288.245 C 165.804 229.859,165.295 228.691,165.350 219.002 C 165.503 191.858,179.863 179.183,199.507 188.851 C 211.979 194.989,213.431 203.274,203.780 213.231 C 199.228 217.928,199.085 218.172,199.474 220.571 L 199.877 223.052 213.143 222.660 C 227.285 222.241,227.037 222.279,238.325 218.821 C 263.197 211.203,285.506 213.590,312.077 226.714 C 340.383 240.694,351.200 253.101,352.246 272.786 L 352.657 280.515 356.098 276.006 C 360.945 269.655,365.224 260.436,369.401 247.343 C 371.379 241.143,374.313 232.494,375.920 228.122 C 377.527 223.750,378.735 220.066,378.603 219.934 C 378.471 219.803,375.082 221.568,371.070 223.857 C 367.058 226.146,363.567 228.019,363.313 228.019 C 363.058 228.019,362.182 224.758,361.367 220.773 C 360.552 216.787,359.794 213.419,359.682 213.288 C 359.571 213.157,357.603 214.388,355.309 216.025 C 349.719 220.014,347.772 219.251,342.765 211.111 C 340.930 208.127,340.913 208.128,337.882 211.232 C 332.620 216.620,329.627 216.014,323.213 208.259 L 319.264 203.486 316.297 206.408 L 313.330 209.331 308.861 206.719 C 306.402 205.283,303.004 203.111,301.308 201.893 C 297.625 199.247,297.348 199.221,294.885 201.293 C 292.594 203.220,292.391 203.117,284.998 196.281 C 281.132 192.707,280.072 192.072,277.295 191.666 C 268.967 190.447,262.099 177.213,261.069 160.400 L 260.656 153.651 262.601 155.288 C 263.671 156.188,270.986 162.704,278.856 169.767 C 295.282 184.508,293.579 183.552,298.922 181.025 C 303.937 178.652,305.780 178.608,310.789 180.745 C 318.622 184.086,318.390 184.078,321.070 181.111 C 325.179 176.563,326.591 176.872,330.550 183.185 C 331.684 184.994,332.697 186.590,332.802 186.732 C 332.906 186.874,334.605 185.920,336.577 184.610 C 343.222 180.198,344.389 180.337,351.764 186.409 C 356.066 189.950,355.445 189.894,359.775 187.125 L 363.288 184.878 367.571 191.312 C 369.927 194.850,372.075 197.746,372.343 197.746 C 372.612 197.746,374.669 196.875,376.915 195.811 L 380.998 193.876 381.965 200.803 L 382.931 207.729 388.516 207.915 C 393.418 208.078,394.142 207.959,394.439 206.949 C 395.168 204.467,400.000 180.868,400.000 179.789 C 400.000 178.931,396.690 177.071,386.852 172.400 C 365.664 162.340,357.648 159.440,335.588 153.854 C 313.073 148.152,306.573 143.142,304.876 130.184 C 303.534 119.936,272.108 89.945,234.138 62.676 C 221.658 53.713,204.027 41.813,203.705 42.135 C 203.558 42.282,207.135 49.021,211.653 57.111 C 224.902 80.833,226.798 85.688,224.528 90.078 L 223.468 92.128 218.497 88.468 C 215.763 86.455,208.744 81.150,202.899 76.678 C 177.635 57.353,171.594 53.666,148.470 43.460 C 113.425 27.993,88.535 14.973,72.001 3.461 C 67.257 0.158,65.691 -0.583,65.708 0.483 M276.815 133.655 C 287.705 140.918,296.036 146.847,295.328 146.831 C 292.274 146.764,260.180 143.803,259.998 143.572 C 259.799 143.320,256.348 121.866,256.356 120.934 C 256.364 120.044,256.944 120.404,276.815 133.655 " stroke="none" fill="#000000" fill-rule="evenodd"></path></g></svg>